<?xml version="1.0" encoding="UTF-8"?>
<svg viewBox="0 0 640 480" xmlns="http://www.w3.org/2000/svg">
 <g transform="rotate(31.949 342.1 252.94)" fill="#587c34" fill-rule="evenodd" stroke="#825327">
  <path d="m356.01 52.386c-1.6458-1.2892-1.5522-3.8783-1.987-5.9185-0.42319-1.9812-1.1262-4.0534-1.3251-6.2476-0.50702-5.5962 0.4953-12.527-2.3185-16.111-1.1242 0.77623-2.7271 2.0945-3.3112 3.6169-0.4017 1.0443-0.067291 2.5794-0.33151 3.946-0.53332 2.7565-1.4167 4.2983-0.33151 7.8911 0.64642 2.1419 1.8759 5.0165 2.9816 7.2339 0.4787 0.96207 1.3982 1.747 1.9871 3.2879 1.0033 2.6268 1.3728 5.183 2.6501 7.563-0.48068 1.4266-1.2412-0.72881-1.6556-1.3153-1.678-2.3742-2.5116-7.1564-3.9751-10.194-1.6614-3.4476-3.8269-6.0124-3.9742-10.522-0.16864-5.1133 1.7765-9.8636 5.3002-12.824 4.1623 0.31843 3.6904 9.2499 3.9741 14.468 0.34808 6.4334 1.9783 9.6526 2.3166 15.126z"/>
  <path d="m204.31 41.536h0.99452c1.6877 3.8483 2.224 9.3961 1.325 14.797-0.59866 3.5966-0.43486 9.4919-1.325 13.482-1.4031-2.1371-0.36954-4.0138-0.66302-6.2476-0.49139-3.7428-2.8363-6.6773-2.9816-10.193-0.17549-4.2664 1.8662-7.5126 2.6501-11.838z"/>
  <path d="m469.96 85.925c0.53531-0.092911 0.57037 0.31069 0.99356 0.32908 1.2022 3.6344 2.5886 7.9201 2.6501 12.495 0.040009 2.9733-0.55087 5.9679-0.33148 8.8773 0.09552 1.2563 0.66202 2.3994 0.66299 3.6169 0.002899 3.1194-0.96915 6.7238-1.6556 9.5355-0.74686 3.0536-2.2678 5.5149-2.9816 7.892 1.8428-1.868 4.9989-4.0805 6.6252-6.9048 1.5483-2.6907 1.9237-5.3368 3.9742-7.891 3.1034-3.8647 6.557-6.2689 10.599-8.8783 2.6092-1.6841 6.2771-4.7068 10.599-2.3016 0.30325 5.5014-5.4737 6.2834-8.6122 8.8773-0.7995 0.66106-1.3845 1.9154-2.3186 2.6307-0.34708 0.26617-1.0423 0.10937-1.3241 0.32909-2.4297 1.8902-5.8802 3.9538-8.6122 5.9185-2.5389 1.8264-4.3261 3.074-6.6252 5.2614-1.3162 0.86528 0.52554 1.2466-0.33148 2.3016-0.58893 0.62137-2.4268 0.001923-2.3186 1.3153 1.9997 0.58653 4.02-0.9485 5.9622-1.6444 2.0173-0.72205 4.0667-1.1189 6.2937-1.6444 6.6291-1.5622 16.951-5.0155 24.512-1.6434 1.4547 0.43845 2.7378-0.98432 3.6436 0 0.21454 4.5412-4.6508 4.2954-9.2753 4.2751-3.0128-0.013565-6.7773 0.56912-10.599 0.65718-7.5232 0.17325-15.089-2.6916-19.212 1.9735-1.0276 0.032913-1.5824-0.40263-2.3186-0.65816-0.50406 1.145-1.2578 2.0393-1.325 3.6169 3.1522-0.49263 6.1796-1.5128 10.599-1.3144 9.56 0.42879 21.539 2.4797 25.505 7.8911-2.2025 3.794-6.5384 1.7228-11.262 0-2.6793-0.97757-5.5615-1.4992-7.9492-2.3016-5.6853-1.9115-9.7452-5.2923-17.225-2.6307-5.5146 5.7046-5.4805 16.918-9.2743 24.332 1.7004 0.1239 2.7418-1.3511 4.3056-1.9725 2.0436-0.81108 4.8634-1.1121 7.6178-1.6444 8.0711-1.5573 17.511-1.5612 27.161-0.32907-0.90286 1.5515-2.7378 1.5505-4.3056 2.3016-1.325 0.63492-2.5234 1.8786-3.9751 2.3016-9.9948 2.9123-23.528-4.76-31.136 1.3153-0.93799 2.0287-1.3816 4.5471-2.6501 6.2476-1.5464-0.42491-0.20868-3.1272 0-3.946-1.403-5.7249-2.577-10.826-4.6382-15.783-2.0338-4.8945-4.9569-8.9751-5.6307-14.468-0.54111-4.4135 0.35199-10.657 0.99451-15.783 2.4229 1.5951 2.7817 5.002 3.6436 7.891 0.88534 2.9685 1.2363 6.1566 1.9871 9.2074 0.67761 2.7507 2.2874 5.4085 2.6501 8.2201 0.78684 6.0869-0.48944 11.644 1.6556 17.098 4.0024-6.1063 4.1701-15.045 7.6187-21.702 0.66205-1.2776 2.2113-2.6103 2.6501-3.946 0.3783-1.1498-0.16577-2.2484 0-3.2879 0.12283-0.77042 0.77902-0.68042 0.99353-1.3153 0.27786-0.81978-0.75272-1.776 0-2.3016 2.7349-3.2288 2.1947-10.308 0.66302-15.125-0.69229-2.1777-2.0241-3.885-2.3186-6.2476-0.97403-7.8252 1.7999-12.743 2.9816-20.058 0.11795-0.43263 0.58304-0.51782 0.66299-0.98724z"/>
  <path d="m358.99 161.22c-2.6101 0.6291-4.7035-0.60298-7.2872-0.65816-7.2268-0.15485-14.87 3.2307-21.862 3.6169-1.3854 0.076477-3.5422 0.67268-4.6372-0.98625 5.7555-3.7912 15.907-6.4838 25.505-4.9323 3.2078 0.51878 6.1338 1.4092 8.2808 2.9598z"/>
  <path d="m359.32 162.54c-0.13159-0.63881 1.5094-0.48105 0.99454 0.32907h-0.66299c0.060425-0.27972-0.12967-0.31068-0.33154-0.32907z"/>
  <path d="m273.53 195.75c1.0354 0.94464 1.1125 2.8417 0.9935 4.9323-1.0198-0.83142-1.5941-3.554-0.9935-4.9323z"/>
  <path d="m273.87 201.67c7.1585-1.9822 5.8413 10.906 1.3251 11.18-5.0847 0.30875-6.3756-9.7813-1.3251-11.18zm0.662 4.9323c1.1038-0.63976 0.9097-3.6837-0.9935-3.2879-0.28665 0.91658-1.0482 3.7476 0.9935 3.2879z"/>
  <path d="m441.47 213.83c0.40753 0.14325 0.67956 0.42102 0.66299 0.98625-1.1495 0.28748-1.1378-0.50618-0.66299-0.98625z"/>
  <path d="m233.45 230.27c-1.445-1.988-2.5155-4.2915-1.9871-6.9048 0.71077-3.5182 5.229-4.5084 7.2872-1.9735 2.2913 2.8242 0.81023 11.209-5.3002 8.8783zm1.325-4.6041c1.0667-0.88754 1.443-3.3043-0.66202-3.2879 0.31688 0.9998-0.70981 3.3343 0.66202 3.2879z"/>
  <path d="m273.53 220.08c3.239 0.81979 7.2268 0.50523 11.593 0.98724 5.0837 0.56039 8.7741 3.4146 14.243 4.2751 0.44949 0.070663 1.9442-0.56329 1.9871 0.6572-2.1655 0.00386-3.744-0.015488-5.6307 0.65718-1.4469 0.51685-1.7365 1.7557-3.9751 1.9735-2.1421 0.20808-4.8244-1.2031-7.6178-1.9735-4.9326-1.3599-9.0266-2.2135-10.599-6.5767z"/>
  <path d="m374.23 240.14c0.43286 0.59718 0.94281 1.9842 0.3305 2.6307-1.4274-0.0242-1.0803-2.169-0.3305-2.6307z"/>
  <path d="m206.96 248.36v0.98624c-1.6088 0.53816-3.1415 0.46268-4.9687 0.98628-3.8562 1.1072-6.5384 3.2646-11.924 3.2879-1.3533 0.00679-3.081-0.10552-4.6372-0.32809-3.8152-0.54591-9.1164-1.4063-9.9373-4.6032 1.9481-0.76849 3.4047 0.1839 5.3002 0.32907 8.3012 0.63493 16.727-2.5106 25.174-0.6572 0.33052-9.46e-4 0.66205-9.46e-4 0.99355-9.46e-4z"/>
  <path d="m303.01 253.29c-2.577 2.3084-3.0381 6.0182-4.6372 8.8773-0.78098 1.3957-1.7969 2.5658-2.9816 3.946-2.7144 3.1611-5.1392 5.0088-9.6058 6.9048-1.0442 0.4433-1.6829 1.6996-2.9816 0.98721 4.7405-6.2553 8.0692-13.91 16.23-16.769 1.6478-0.99594 1.4528-3.8202 3.9761-3.946z"/>
  <path d="m302.02 259.54c1.366 1.1644 0.89218 4.156 1.9871 5.5895 3.5159 0.90399 4.9891 6.0086 2.9816 9.5364-1.7979 1.1701-4.6654 1.8757-6.6242 0.32907-0.97305-3.2704-1.6458-4.7222-0.33148-7.2348 0.5538-1.0569 2.3556-1.4557 2.6501-2.3016 0.079926-0.23035-0.64645-0.50909-0.66306-1.3153-0.020447-1.023 0.12872-3.3353 0-4.6032zm-0.3315 9.8646c0.42413 0.4491 1.5639 0.4491 1.988 0-0.039032-0.83914-0.062408-1.6918-0.99353-1.6444-0.10239 0.77524-1.1505 0.61169-0.99451 1.6444z"/>
  <path d="m441.8 344.7c-1.3855 4.5296-5.1373 7.5368-7.6178 11.18-1.2909 1.8951-2.3049 3.8308-3.6436 5.5894-1.2734 1.6715-3.2663 2.8668-4.6372 4.6032-0.89505 1.1334-1.1915 2.8175-1.988 3.946-0.49921 0.70657-1.4996 1.0105-1.9871 1.6434-1.3514 1.7538-1.7092 3.917-2.9816 5.5895-1.1651 0.81589-2.262 1.6996-2.6501 3.2878 2.9855-0.42392 4.6001-3.674 6.6252-6.2476 2.771-3.5221 7.0357-9.4029 12.586-10.193 1.8486-0.26328 4.3749-0.25842 5.3002 1.3144 0.34613 3.4728-3.5101 4.1851-5.6307 5.2614-7.0171 3.5618-13.343 8.6808-19.874 12.824 2.0934-0.1723 4.5094-1.7751 7.2872-2.9598 2.8002-1.1944 5.658-3.0526 8.6123-3.6169 2.4716-0.47235 6.2518-0.63397 7.9493 1.6434-3.4779 5.7986-10.949 5.9747-18.549 7.2348-2.3293 0.38522-5.269 0.51297-6.9567 1.3144-2.0339 0.96786-1.9451 2.8968-3.3121 4.6041-0.36466 0.45688-1.3514 0.71527-1.9871 1.3144-1.6108 1.5176-1.1934 2.2958-3.9742 2.6307-2.5184 2.652-4.8721 5.4656-8.6122 6.9058-1.3416 3.7098-5.4396 4.6835-6.9567 8.2201 3.5061-0.059021 6.6593-1.8399 9.9373-2.9598 4.9628-1.6957 10.32-3.5966 16.23-3.2878 3.3502 0.17517 6.556 1.5873 9.9363 1.9725 1.6643 0.1897 3.3004-0.84396 4.6372 0.3291-1.5893 1.776-4.4334 4.2054-7.2872 4.2741-1.0822 0.026154-2.2318-0.87979-3.3121-0.98624-1.5581-0.15292-3.1074 0.52747-4.9686 0.65814-4.6177 0.32327-9.8398-1.1169-14.243-0.98721-3.5071 0.10355-6.83 1.8322-9.6058 2.3016-0.23108 1.0066 2.4161 1.9793 1.6556 4.6032 1.5708 0.96207 3.5091 1.5583 4.3066 3.2878 0.25256 3.6489-0.4241 6.3754-1.6565 8.5492-0.82587 0.27682-1.7745 0.42972-2.9816 0.3291-0.54211 0.99594-0.37442 2.6965-1.3241 3.2878-4.8429 2.5571-6.9996-4.2625-4.9687-8.2201 0.26132-0.50812 1.0755-1.1992 1.3241-1.9735 0.43195-1.3415-0.003906-3.0449 0.33148-3.9451 0.6601-1.7693 2.7564-2.5648 2.3186-3.6169-0.097504-0.66974-0.89606-0.64459-0.99356-1.3144-9.0295 1.6725-11.504 11.592-20.868 11.836 1.2324-1.8438 3.7353-2.1361 5.6307-3.2869 1.8837-1.145 3.5529-2.3499 4.6372-4.2751-0.30322-5.4578 1.8993-12.205 0.33151-17.426-0.51773-1.7257-2.1694-3.8579-3.3121-4.9332-2.3264-2.1864-5.9817-2.7188-8.2798-4.9323-1.5142-1.4566-1.9452-3.4088-3.3121-4.9323 0.72348-2.4555-0.93014-4.6448 0.66205-6.9048 1.8867 0.10065 1.8077 2.1516 2.9816 2.9588 3.201 1.6483 7.5047 3.5192 10.269 6.5767 0.60553 0.66974 1.17 2.1313 1.9871 3.2878 1.4976 2.1197 3.1298 3.5269 3.3121 7.2339 0.29642 5.9998-3.4301 10.523-2.9816 17.428 1.5181-0.13742 1.7521-1.5495 2.6501-2.3016 4.7414 0.031921 5.6365-4.5238 8.2808-7.2349 0.54892-0.56329 1.756-0.76074 2.3185-1.3144 1.0306-1.0143 1.3904-2.4448 2.3186-3.2879 1.2792-1.1605 3.0986-1.5689 4.3066-2.6306 2.0446-1.7964 2.9972-4.4832 5.6307-5.5894 1.1242-3.1988 2.2435-5.7404 1.3241-8.8783-0.82288-2.8098-3.9244-4.5519-4.6372-6.9048-0.39587-4.0806 1.1964-6.9764 2.9816-9.5364 1.1749-1.6851 2.7398-3.9392 4.6372-4.2741 0.38321 3.5995-1.2295 7.4149-1.325 11.509-0.12967 5.5391 1.3036 11.617-1.3241 16.44 2.7612-0.56622 3.2604-3.0827 4.9687-5.5895 1.7248-2.532 4.174-4.8345 4.6372-8.8783 0.74197-0.36008 1.6594-0.54398 2.3195-0.98724 1.3943-3.9857 3.0537-7.71 5.6297-10.522 0.043854-6.1905 3.668-10.777 6.6252-14.796 2.4288-3.3014 5.032-4.4493 8.6123-6.9058 1.2958-0.18872 1.9227 0.28458 2.6491 0.6601zm-54.322 76.942c1.6293-1.3424 2.5146-3.4224 3.3121-5.5894-0.07019-0.36972-0.36859-0.51199-0.66299-0.65814-0.8327 2.0325-3.9478 3.1494-2.6491 6.2476zm5.2992 1.6435c1.016-1.1131 1.3484-3.376-0.66299-3.6169-0.42999 1.0598-0.71277 3.4147 0.66299 3.6169zm-2.6501 5.2614c0.007782-0.52557-2.1665-5.9205-2.9816-5.5894-2.3186 1.3879-1.8359 8.2482 1.6556 7.891 0.86386-0.37842 1.3124-1.3502 1.326-2.3016z"/>
  <path d="m300.03 359.49c0.15503 1.8206-2.5614 2.1284-2.6501 0.32907 0.48166-0.50815 1.6956-0.2894 2.6501-0.32907z"/>
  <path d="m314.94 366.73c1.2587 0.002899 1.2188 1.2844 1.988 1.6435 1.6926 0.7898 4.8887 0.29038 7.6187 0.65814 3.553 0.47717 8.3998 1.4528 8.6123 3.2879 0.34222 2.9598-5.0067 2.4652-6.9557 1.9725-1.0871-0.27487-2.3878-1.3482-3.9751-1.9725-2.8919-1.1392-6.1026-1.7247-7.2872-4.2751-9.46e-4 -0.43845-9.46e-4 -0.87592-9.46e-4 -1.3144z"/>
  <path d="m303.35 382.84c-1.2324 4.1473-4.4187 6.3541-5.9622 10.193 5.4026 1.776 7.6558-3.4824 11.594-5.5894 1.9851-1.0627 4.8488-2.7739 8.2808-2.6307 3.2897 2.8649-1.678 4.912-4.9687 6.5767-2.2854 1.1556-4.6352 3.3992-6.9557 4.2741-2.148 0.81012-4.5074 0.57202-5.9622 0.98724-2.7856 0.79269-5.4932 3.2734-8.2807 2.6307-1.5474 0.10648-1.4333 1.8651-2.9816 1.9725-0.14429-1.3279 1.7248-3.2656 3.3121-3.946 2.6588 1.7335 9.7336-1.3744 5.6307-3.616-1.5541 0.61072-2.849 2.9946-5.3001 1.6434 0.65424-2.3839 2.5545-7.442 4.6372-10.193 1.3728-1.8128 4.2754-4.8636 6.9567-2.3026z"/>
  <path d="m284.8 398.95c-0.40656 2.8465-3.3891 3.0652-5.9622 4.2741-4.2813 2.0112-8.0224 5.7869-12.256 6.2476 0.037018-3.2288 2.3205-3.7137 4.6371-5.5894 0.95163-0.77045 1.521-2.0538 2.3186-2.6307 0.75562-0.54587 4.3047-2.5939 5.3002-2.9597 2.0231-0.74429 4.9404-1.3095 5.9622 0.65814z"/>
  <path d="m380.19 466.69c6.1914-0.29712 4.6469 11.392 1.325 12.165-7.2014 1.6812-4.5474-10.584-1.325-12.165z"/>
  <path d="m406.69 153.66c1.2646-0.15874 2.1139 0.093887 2.6501 0.65816 0.028259-3.5889 0.44852-6.7886 1.3241-9.5355-0.20279-4.3506-4.1038-5.6359-6.6242-8.2201-1.1983-1.2282-2.7163-3.4417-3.9751-4.9323-4.7736-5.6495-8.8473-16.268-6.9557-26.305 2.4824 1.8641 3.1249 5.3968 4.3056 8.2201 1.1807 2.8213 2.2328 5.8769 3.6436 8.5492 1.7638 3.3391 3.8903 6.4576 4.9687 9.8636 0.63763 2.0161 0.44363 2.861 1.6556 4.6032 0.77417 1.1121 1.3124 2.2426 2.9816 2.9598 0.042877-2.5958 0.90579-4.8258 1.325-7.2339 1.0121-5.8024 0.14725-12.332 0.99356-18.085 0.33054-2.2416 1.0891-4.91 1.6566-7.8911 0.53622-2.8184 0.95062-4.4628 0.66299-7.891-4.4968-6.9184-9.6702-14.874-8.9438-25.648 0.28076-4.1706 1.0364-8.3072 2.3186-12.495 1.753 1.3608 2.6257 5.2497 3.3121 7.8911 0.53628 2.0645-0.25641 5.061 0 7.891 0.25644 2.8446 1.4187 5.4278 1.6556 8.2201 0.35101 4.1318-0.040955 8.1379 1.6566 11.509 1.636-4.2131 2.34-9.1435 3.6426-13.811 0.33832-1.2098 1.1495-2.3122 1.325-3.6169 0.34909-2.5891-0.57428-5.1394 1.3241-6.5767 1.6711-14.781 6.2527-26.674 19.875-29.593-0.5343 4.5112-4.6342 5.483-6.9557 8.2201-1.0218 2.7129-3.0196 4.4561-3.6436 7.563-2.9748 1.9803-4.2832 5.5149-5.9622 8.5492-1.7014 3.0749-3.6553 6.4257-3.9742 10.523 2.4941-2.3084 4.5251-5.1752 6.6242-7.892 2.1021-2.7207 3.668-5.9021 5.9622-8.2201 4.6138-4.6603 10.962-7.319 18.88-8.8773-0.81802 2.7342-3.8279 3.9925-5.9622 5.9185-2.7222 2.4565-6.7754 4.1793-10.268 6.5757-6.8046 4.67-12.891 8.946-15.9 17.426 0.14233 3.978-2.3098 5.3794-2.3186 9.2064 3.4925-0.2652 3.6612-4.2393 4.6372-6.5757 1.9832-4.7484 5.4249-9.5268 8.9438-13.152 1.679-1.7306 3.392-4.0089 5.9622-4.9323-0.34613 3.164-2.3917 4.64-2.6511 7.891-4.5406 6.5622-10.26 11.955-15.236 18.085-0.69226 0.1897-0.94577 0.81495-1.9871 0.65815-1.0696 2.3413-1.0832 5.424-0.33148 8.2201 11.533-2.32 19.974-13.593 33.455-10.194-0.11896 1.686-2.2074 1.746-3.3121 2.3016-2.6393 1.3279-5.1169 2.1971-8.6123 3.6169-4.4958 1.8274-9.9871 4.8181-16.23 5.2614-2.6374 0.18681-4.8858-0.4607-6.2937 1.3153-1.8292 11.556-2.9026 23.862-3.9742 36.169 5.0857 0.1355 5.97-5.1617 8.6122-9.2064 4.1467-6.3492 9.3767-12.953 15.236-17.756-2.5214 13.72-12.961 22.426-23.517 29.265-0.045807 0.61171-0.21838 1.0985-0.66299 1.3153-1.4401 10.78-2.4921 21.088-1.325 32.552 1.0189 0.88271 1.483-1.5825 2.9816-1.3154 0.66983 0.30199 1.5542 1.1266 2.3186 2.3016 0.70294 1.0792 1.7979 3.6237 1.6566 3.946-1.2548 2.8736 2.5682 1.0153 4.3057 3.6169 2.5252 3.7795-0.30521 11.171-5.3002 7.891-0.67081-1.2282-1.2841-2.5416-1.324-3.946-0.074127-2.5397 1.2568-3.7176 0.9935-6.5767-0.13843-1.4983-0.57819-4.5219-2.6501-5.9185-2.8119 1.0753-2.8022 7.4991-2.9816 11.508-0.20865 4.6777 1.1622 10.046-1.3241 13.482 1.3621 2.077 3.4379 3.1824 4.9687 4.9323 1.8652 2.1342 2.9133 4.58 4.3056 7.2339 0.5314 1.0114 1.5093 1.9115 1.9881 2.9598 1.4752 3.2317 1.5512 7.2542 3.9742 10.194 1.0666-6.3947 0.71078-14.202 2.6501-19.729 1.2354 2.3752 4.0551 3.2085 5.3002 5.9185 1.755 3.8202 0.77808 8.9441 1.6566 14.139 2.5857-3.2414 3.0235-8.617 6.2927-11.179 0.93893 0.34262 1.3806 0.34262 2.3196 0 0.1131 4.1686-0.88046 7.2368-0.99454 11.179 1.442-1.6231 4.2959-4.8461 6.9557-6.5757 1.0433-5.181 0.93115-11.171-2.6501-13.482-0.88629-4.3351-2.4424-8.3663-4.9687-11.179-1.6273-1.8128-3.9205-3.1959-5.9622-4.9323-1.873-1.5941-3.8211-3.283-5.6307-4.9323-5.501-5.0126-11.842-9.2567-13.249-18.414 2.7183 0.9369 3.3882 3.7195 5.3002 5.5895 2.9133 2.8494 7.141 5.241 10.599 8.2201 3.1902 2.7478 7.8576 6.4267 9.6068 9.8646 1.171 2.3026 1.365 5.0987 2.3186 7.562 0.88534 2.29 2.7447 4.036 2.9816 6.9048 0.73517 0.69493 1.8008 1.0627 2.3186 1.9735 1.1261-5.3784 2.2006-12.222 1.9871-17.756-0.15793-4.1009-2.3956-6.9754-4.9686-9.5355-2.5009-2.4903-6.3191-4.3322-9.2743-6.9048-1.4001-1.2186-2.611-2.682-3.9751-3.946-2.3332-2.1603-3.9205-3.4108-5.9622-5.9185-1.4206-1.746-4.5065-4.5558-3.3121-7.891 3.0167 1.3715 4.9394 4.0312 7.6187 5.9185 2.6179 1.8448 5.4162 3.2366 7.6178 5.5895 5.0379 5.3823 7.9863 12.139 12.586 18.085 2.5389-3.9538 0.62109-9.1657 0.33151-14.468 4.3134-3.6218 10.169 0.59911 13.581 4.6032 1.874 2.199 3.5315 5.483 5.3002 8.2201 1.2958 2.0064 2.9796 3.2772 2.6501 6.9048 0.20578 1.2214 1.3563 1.5041 0.99454 3.2879-2.4473-0.17131-4.0288-2.5232-5.6307-4.2751-1.5844-1.7325-3.5861-3.5898-4.9687-5.5894-1.5922-2.3016-2.6959-5.2565-4.3066-7.562-1.6273-2.3306-3.473-4.6981-5.9612-5.9185-1.212 0.89139-0.97891 2.8378 0 3.6169 0.73126-0.69881 0.17551-2.6752 1.9871-2.3016-1.2061 7.6791-2.9065 16.302-2.6501 23.674 4.7581-2.1177 9.7043 1.5428 9.9363 6.9048 5.5917-1.1614 14.052-3.8986 20.868-3.6169 2.2338 0.092926 5.8647 0.82561 6.2927 2.6307 0.27008 1.3647-2.0417 0.16551-2.3186 0.98723-6.1874 3.3934-16.965 2.229-23.517 5.2614 1.4684 3.1146 5.3723 3.6537 7.9493 5.5895 2.1236 1.595 3.6378 3.9354 4.6372 6.5757 1.7112 1.2602 3.7499 2.1971 4.9687 3.946 1.3845 2.6239 0.54309 5.5604 0.99451 8.2201 0.40659 2.3936 2.3166 4.5451 1.6556 6.9048 0.7771 1.2137 2.2279 0.95238 2.9816 2.3016 1.5191 2.7187 0.12677 6.8322-1.6556 8.5492-1.5659 0.1297-2.7642-0.1055-3.9751-0.32907-2.6569-2.5949-1.9968-9.2635 1.6566-10.193-0.8736-5.3804-1.8808-10.628-2.9816-15.783-1.0179-0.08519-1.4898-0.71333-2.3186-0.98628-0.30908 0.60977-0.59671 2.5175-0.33148 3.617 0.23593 0.98044 2.0816 1.687 2.6501 3.2878 1.4255 4.0186-0.50311 8.2376-4.3066 7.891-4.489-0.40939-4.3193-9.6187 0.66299-10.851-0.038025-3.3633 0.92529-5.8895-1.9871-6.5757-1.5347-6.477-9.0832-6.9851-12.256-11.837-5.3937 0.45393-8.1111 3.5656-11.593 5.9185v4.6032c4.5299-2.5184 9.7628-4.338 16.23-4.9323-0.17258 1.3095-1.4742 2.4313-2.3196 3.2879-2.8051 2.8455-6.7022 4.9158-10.931 6.9048 4.4265 4.2644 8.975 8.4089 11.924 14.139 4.9852 0.31166 11.294-0.69009 12.587 3.2879-2.7915 1.6134-7.0084 1.8118-9.6068 3.6169 1.0481 1.1856 1.6458 3.3227 0.99448 5.2613-3.2916-0.020309-3.9078-2.6974-5.9622-3.946-3.7314 0.68234-9.5161 1.0734-13.581 0.32909-1.6916 1.1702-3.8572 1.8709-6.2937 2.3016 0.14722-1.2389 1.8769-1.4886 2.9816-1.9735 1.0345-0.45294 2.3634-1.1769 3.3121-1.3153 2.6667-0.38812 5.812 0.54007 8.6123 0.32907 5.1042-0.38425 9.6624-2.3577 13.912-3.6169 1.364-0.40457 3.1132-0.48683 3.9742-1.6434-0.57718-1.6338-2.8568-1.5128-4.3056-1.6444-8.7088-0.78784-17.279 1.3879-22.525 3.946-1.4313 1.1005-1.716 3.3382-3.9752 3.6169 1.7892-5.3475 8.2106-6.0976 13.581-7.891-3.0986-3.8289-4.5884-9.2548-7.2872-13.482-1.6702-0.01355-2.1646 1.1392-3.3121 1.6444-0.93112 5.213-2.7934 9.5026-4.9687 13.482-0.29541 3.4331-0.64835 6.81-2.3186 8.8773-1.6614-8.3702 3.9459-14.534 5.6307-21.702-2.3605 0.1781-3.5598 1.508-5.9622 1.6444-0.50507 2.9433-0.68546 5.5885-1.6556 8.2201-0.89017 2.4129-2.8461 4.2006-3.6436 6.2476-1.0472 2.6849-0.9555 5.6185-1.9871 8.2201-0.93698 2.3635-2.1899 4.2286-3.3121 6.5767 0.8775 4.8848-0.63962 8.8783-2.3186 12.165 4.8916-3.3653 9.4362-9.9226 11.923-16.769 0.28375-1.3637-0.7605-4.0438 0.99454-3.946-0.032196 2.2096-0.20184 2.8058-0.33154 5.2613 1.2968-1.3434 0.036102-5.2246 1.6566-6.2476 1.2012 0.12199 0.36954 2.2629 1.6556 2.3016 2.7388 0.40555 5.62-0.53235 8.6123 0 2.1918 0.39003 6.1036 2.9772 9.2743 4.6032 3.355 1.719 6.9713 3.1465 9.2753 4.6032 2.4483 1.5476 5.1081 4.5984 5.6307 7.8911-1.3162 0.80914-3.0176-0.3891-3.9751-0.98724-3.9742-0.12292-7.2004-2.3994-10.268-4.2741-5.0379-3.0788-10.088-5.33-13.25-10.193-1.9334-0.60106-5.229 0.14906-6.6252-0.98723 0.12088 2.1864-0.84048 4.3612-1.6556 6.2476-1.873 4.3351-3.3443 6.9754-6.2937 10.522-1.2938 1.5563-2.8051 3.6092-3.9742 4.6032-0.96622 0.82364-2.3361 1.2418-3.3121 1.9735-5.7146 4.2761-10.574 9.219-14.906 14.796 3.8981 0.80914 6.4585-3.2385 8.9438-4.9323 1.7053-1.1624 3.6514-1.7064 5.9622-2.3016 4.2247-1.0898 8.8033-2.6588 14.243-2.6307 4.1565 0.021271 7.8235 1.4373 11.262 2.9598 1.6175 0.03775 3.4905-0.17807 4.6372 0.32907-1.0482 4.1096-5.5332 3.585-10.599 3.9451-9.5746 0.68042-20.67 2.8765-30.474 3.6169 3.2595 2.683 7.1673 4.7223 8.9438 8.8783 1.4167-1.0056 2.6803 0.0755 4.3056-0.32907 1.2714-0.3165 2.2825-1.7693 3.6436-1.9735 4.4363-0.66589 8.8063 4.097 12.918 0.65817 0.91748 0.73364 1.2373 2.0615 2.3186 2.6306 2.4834-1.326 5.2933-2.6162 8.6123-3.6159 3.4096-1.0279 7.3086-0.57785 10.268-1.6444 3.1084-1.1198 4.5358-4.1705 6.6252-5.9185 0.31104-3.4108 2.0572-5.694 3.6436-8.8773 2.0924-4.2015 3.124-5.4017 6.6242-8.2201 2.0719-1.6686 3.9566-4.1164 7.9492-2.9598-4.8156 10.673-13.007 17.997-21.199 25.318 6.3181 0.88464 10.514-4.5984 15.9-7.2339 3.3092-1.6193 6.2947-2.9685 9.9374-0.98724 0.064331 2.7265-1.6449 3.5879-4.3067 4.9333-3.9205 1.9793-9.5434 3.585-15.9 3.6159 1.2168 1.4238 4.1614 1.1305 5.3001 2.6307v2.9597c-3.7333 1.9938-9.4011 2.0674-13.912 3.2879 7.295 1.1934 14.89 2.6558 21.53 4.9323 4.1107 1.4092 8.31 3.1127 9.2753 6.9057-2.9592 1.6038-6.6613 0.64172-10.268 0.32812-4.565-2.4226-10.098-3.4795-15.238-4.9323-5.1617-1.4586-8.778-4.73-12.586-7.2339-3.0158-0.2952-6.439-0.1839-8.9438-0.98721 0.64447 1.6628 2.6774 1.9464 4.3056 2.6306 2.5984 2.4516 6.9265 7.08 4.9696 11.837-1.8564 0.55554-3.2332-1.9909-5.9622-1.6435-0.09845-0.66977-0.66397-0.87592-0.99448-1.3153-4.8117-1.3018-8.389-4.0128-11.923-6.5757-3.5178-2.5513-6.0285-6.1257-9.9373-8.2202-1.6722 1.4228-3.3199 1.3202-5.9622 1.3144-9.46e-4 1.9745 1.6429 2.3161 1.325 4.6032-0.87555 0.62912-3.041 0.34265-3.9751 0 0.16184 1.3744 0.76245 2.3123 1.325 3.2879 3.8962-0.18195 6.4614 0.069672 9.9363 0.98721 3.3375 0.87979 6.4673 1.9174 9.2753 3.2879 1.6 0.78107 4.2794 1.7102 3.9742 3.2869-0.69229 3.5879-9.2421 0.46457-11.261-0.6572-0.60644-0.33777-1.3953-1.1276-1.9881-1.6444-1.8817-1.6386-4.3905-4.0505-8.2807-3.945 0.089661 1.8293 3.3823 3.1785 2.9816 6.5757-1.4918 1.3221-3.0966 5.2614-2.6501 7.891 0.35394 2.0858 2.0563 2.5474 2.9816 3.946 0.78296 3.3837 0.013672 6.6648-1.6556 8.5492-7.6587 2.6955-7.997-9.9488-1.9881-10.522-0.19693-1.4054-0.47186-2.6258-0.3305-3.946 0.2691-2.5232 2.2786-5.3262 1.9871-7.562-0.20962-1.6028-0.73807-1.2602-1.6566-2.3016-2.0456-2.321-3.3472-7.0964-5.9612-8.5492-2.1333-0.1839-3.3541-1.2727-5.3002-1.6444 0.079956 2.774 2.1167 5.3465 1.3241 7.892 4.4129 1.2563 4.9901 9.5935 1.325 11.836 1.6965 3.6779-1.8896 7.1516-1.325 9.8645 0.38705 1.8622 2.0397 1.988 3.6436 3.2869 1.4401 2.7284 1.015 7.2775 0 10.194-7.1488 6.1538-11.441-9.9797-4.3066-11.509-1.5717-4.0041 1.4859-7.2571 0.99451-11.18-0.91165-0.51974-2.2981-0.56812-3.3121-0.98721-1.1632-1.5844-2.0524-3.4427-1.9871-6.2466-1.2129 0.23712-2.4453 1.6028-4.3066 1.3144-4.448-0.68915-4.7171-9.2935-1.6556-12.165 0.5275-1.1208 3.5608 0.24683 2.9816-1.9735-2.1002-0.49069-3.6426 1.8245-5.3002 2.9598-1.7063 1.1701-4.0833 1.7973-4.9687 3.6169-0.23691 0.89337 1.562-0.2352 1.3241 0.65814-0.064362 1.2699-0.011719 2.4226 0.33148 3.2869 0.28375 0.97659 1.131 1.0453 1.6556 1.9735 1.0355 1.8293 0.8122 4.7455 1.6566 6.9048 0.10141 1.3424-0.69128 0.17615-1.325 0.32907-0.63474 2.954-0.64059 5.2633 0.99451 8.2202 0.84631 1.5321 2.654 2.3054 2.9816 3.6169 0.88141 3.5337-0.85022 6.4441-2.9816 8.5492-1.5805 0.25357-2.1323-0.51395-3.6436-0.3291-3.3511-2.4478-2.225-10.537 1.988-11.18 0.030243-1.9716-0.95453-3.3711-0.99451-5.2614-0.085785-4.0089 2.2367-7.2648 0.33151-10.194-0.98477-1.5118-2.9338-2.9975-3.9751-4.9323-1.444-0.008728-1.8135 1.0492-2.9816 1.3153 0.50116 1.5215 0.44754 3.193-0.99356 3.616-1.2646-0.17035-1.6887-1.1731-1.6565-2.6307-1.5727 0.30197-3.2585 0.49264-4.6372 0.98721 1.7638 2.5252 4.4012 7.0297 4.6372 12.166 1.8223 1.4789 5.1393 1.474 5.9622 3.945-1.3475 2.9384-6.0733 0.59912-6.6242-1.3144-1.2217 2.0297-0.24374 5.6737 0 8.2202 3.2215 2.5764 5.619 12.33-0.66299 12.823-5.8315 0.45779-6.2108-9.852-0.99454-11.837 0.32568-5.6611 1.5191-13.87-0.66299-18.742-1.9295 0.89142-0.2915 3.4592-1.9871 4.2751-1.0706-0.44907 0.54211-4.4667 0.99451-5.5894-0.17551-0.26422-0.34518-0.53427-0.33148-0.98721-0.56845-1.2989-2.1187-1.6231-2.9816-2.6307-1.6702 0.31458-2.7681 1.1982-4.9687 0.98727-0.858 3.7514 2.0807 5.0136 0 8.2201 1.0676 1.7935 2.9094 0.51199 4.3056 1.6435 2.2542 1.8273 1.4878 5.664 0.33151 8.2201-1.5639 0.6543-4.0648 0.33682-5.3001-0.32907-1.5356-2.3307-0.65521-5.4888 0.33148-7.891-1.7599-0.32523-3.4223 1.7093-3.9751 3.6169 1.9325 2.2977 2.8792 6.3928 1.325 9.5355-6.8251 5.7066-10.477-9.6894-2.6501-9.2064 0.61719-3.7708 3.861-4.9361 5.3001-7.892-0.38025-1.7054-1.1963-2.9772-0.99451-5.2614-2.9192 0.034851-4.6352-2.1961-7.2872-2.3016-1.4021-0.056152-2.4434 0.91754-3.9751 1.3154-1.2295 0.31937-2.9133 0.36002-4.3057 0.65717-2.5145 0.53812-4.3798 1.5602-7.6177 0.65814-6.282 6.0279-12.615 12.534-19.212 18.742-4.3466 4.0902-9.99 6.4779-13.912 11.18 4.8322-0.19455 11.045-0.53525 14.574-0.98627-0.015594 2.9288-3.6719 1.5234-5.6306 1.6435-3.358 0.20517-7.6519 1.5205-10.268 0-4.3759 5.8498-12.297 8.1795-16.562 14.139 2.419 2.4516 4.2628-1.9735 6.9558-2.3016 3.6582-0.44617 9.7871-1.235 12.256 0.9863-2.2494 5.4433-11.861-1.6048-14.243 1.9735 0.35388 0.64459 1.9647-0.2168 2.3185-0.65817 1.0452 2.47 4.7873 2.2629 6.9558 3.616 7.6567-3.5831 18.884-3.7922 28.155-1.9725 4.1789 4.0999-4.9062 4.8016-10.599 4.2751-1.7794-0.16455-4.2374-1.1982-6.2937-1.3153-3.5861-0.20422-9.481 0.64941-11.924 0.65814-0.7937-0.85654-1.4567-1.8428-2.6501-2.3016-1.3504-0.24484-1.1408 1.0598-2.6501 0.65723-1.6449-2.4216-7.3428-0.8208-9.6058-2.6307-1.3348 0.31747-1.8681 2.0616-3.6436 0.98721-4.9365 6.0599-12.97 9.0467-16.562 16.44-4.5796 2.4681-6.7851 7.2939-11.593 9.5364-1.6994 2.3674-2.6403 5.4898-4.9687 7.2339-1.9754 4.3225-3.3774 9.307-5.3001 14.139-0.53821 1.3531-0.98672 3.2869-2.6501 3.6159-0.78586-2.4855 1.1408-4.9603 2.3186-6.5757-0.21841-0.98819-1.2734-1.1479-0.99451-2.6306 0.39197-0.37942 1.171-0.37265 1.988-0.3291 0.26425-3.2453 2.3849-4.6477 2.3186-8.2201 1.3143-1.8738 3.1308-3.2492 3.6436-5.9185h1.325c1.989-2.6288 4.4002-4.8384 7.2872-6.5767-0.88434-0.96106-2.2347 2.141-2.9806 1.3154 0.2457-2.1671 2.5058-2.3345 2.9806-4.2741 1.3952-0.36389 1.5249 0.6543 2.6501-0.65814 0.78485-0.53717 0.7059-1.9309 1.325-2.6307 0.70685-0.15387 0.63083 0.46942 0.66299 0.98624 3.7811-5.1239 9.675-8.1514 13.249-13.481 2.5584 0.85947 2.9562-2.2881 4.6372-3.2869 1.4801 0.077423 2.3147-0.52652 3.6436-1.3153 0.17941-1.1644-1.1729-0.80817-0.99353-1.9725 1.212-0.2168 1.2704 0.71136 2.3186 0.65814 3.7138-2.6694 7.7552-6.1973 11.924-9.2073 1.0666-0.77042 2.4092-1.3115 2.9816-1.9725 1.2334-1.4247 0.9321-4.0351 3.3121-3.946 0.24667-1.0124-0.9097-0.63104-0.66302-1.6434 1.1271-0.022278 2.3118-0.1026 2.6501 0.65717 11.641-8.1727 21.124-18.488 31.137-28.277 6.1728 1.414 12.076-1.3618 17.225-2.9598-4.6342 0.060974-11.583 4.6167-17.225 1.6434 0.44855-0.69977 0.26034-1.6589 0.66302-2.3016 0.72345-1.1566 1.52-1.0395 2.6501-2.6307 2.2055-3.1059 3.4272-7.6558 5.3001-11.836 0.51092-1.1431 1.3719-2.11 1.9871-3.2879 1.0472-2.0083 1.3611-4.1512 2.9816-5.5894-0.073151-1.0588 0.586-1.3918 0.33154-2.6306 5.6472-9.7387 9.4683-21.29 17.224-28.936-3.2439-4.459 0.32858-10.8 0-16.44-0.61719 3.4272-2.3254 7.6084-2.6491 11.837-0.097534 1.2582 0.26617 2.7313 0 3.946-0.32272 1.4615-1.7102 2.2542-1.6566 3.616h-0.99448c-4.487 7.3587-7.7211 15.468-11.923 23.346-3.0674 5.7472-6.0831 11.25-8.6123 17.756-0.79755 2.0519-1.2958 4.4532-2.3185 6.2476-1.5074 2.6452-4.5787 4.3806-4.9687 7.562-4.7122 1.8845-7.4413 6.8477-11.262 10.522-3.8532 3.704-8.0624 7.6723-12.586 11.18-3.0576 2.3703-6.2176 5.2633-10.6 5.9185-0.90772-1.4905 0.31009-3.3091 0.33154-4.9322-0.70789 1.8767-2.2367 4.7387-0.99356 6.5757-5.4445 3.7495-10.822 8.8947-16.562 12.824-1.2314 0.84204-2.7349 1.144-3.9751 1.9725-0.78388 0.52362-0.9165 1.2941-1.6565 1.9725-0.64743 0.59329-1.7199 0.78494-2.3186 1.3153-5.0164 4.4444-10.256 9.1357-15.236 13.482 4.876-6.8874 11.921-11.622 17.887-17.428 4.1331-1.596 7.3321-4.1212 10.599-6.5757-4.2433-0.56717-15.025 4.1057-15.568-2.9598 1.5639-1.4305 4.9862-0.46747 7.6187-0.65814 3.2906-0.23712 7.3419 0.27777 9.6058 1.9725 4.4061-2.6462 7.2834-5.6437 8.9428-11.509 1.016-3.586 2.2513-6.1082 3.6436-9.5355 0.40463-0.99591 1.1096-1.7499 1.325-2.6306 0.25937-1.0598-0.024353-2.3626 0.33154-3.6169 0.20572-0.72394 1.0179-1.4731 1.3241-2.3016 0.69421-1.8767 0.65909-4.2858 1.325-5.9186 0.45728-1.1208 1.6351-1.8322 1.9871-2.9597 0.8707-2.7865 0.14816-5.9166 0.99353-8.8773-3.3658 0.057098-4.993 1.838-6.2937 3.945-3.1795 1.6754-7.0406 2.47-9.6058 4.6032-1.5513 1.2902-1.5893 3.5753-3.6436 4.2751 0.45532-4.4619 3.6153-7.8262 7.2872-10.851 3.1249-2.5746 7.1059-3.0062 12.256-3.6169 1.3114-4.5238 3.3326-10.408 2.6501-16.111-0.082886-0.70074-0.62012-1.6077-0.66205-2.3016-0.041931-0.68426 0.5343-1.5612 0.33151-2.3016-0.67761-2.4729-3.4525-2.8823-2.9816-5.5895-1.7677 2.1913-0.60355 7.2929-2.9816 8.8783-0.42804 1.4412 0.84534 3.0798-0.33151 3.2869 5.0388 0.62427 5.1997 11.781-1.6556 10.523-3.7226-2.109-3.5364-8.9944 0.99356-10.194-0.63669-1.5263 0.66983-2.2232 0-4.2741 2.3449-3.1524 1.4976-9.4735 4.9687-11.509 0.77805-0.10452 1.2431-0.51877 2.3186-0.32907-0.44366-3.887-2.0027-8.585-2.6501-13.152-0.51578-3.6411-0.30322-7.0829-2.9806-8.8773-1.1642-5.8595-3.0323-11.019-5.3001-15.783-2.7964-1.9367-4.5787-4.88-7.2872-6.9048-4.2861-0.98627-4.5621 2.3123-7.9502 1.3153-1.5396 2.0229 0.8541 3.2792 1.325 4.9323 0.53332 1.8719 0.14236 3.9499 0.33057 5.2614 3.8347 1.175 5.2445 6.0637 2.9816 9.8646 6.6895 2.5339 1.3328 15.331-4.6372 9.8636-0.79855 0.21292-1.3153 2.3964-1.9871 1.6444 1.8973-2.5426 0.89896-6.264 2.3186-8.8782-0.63669-0.79271-1.5551-1.3056-2.3186-1.9735 0.75952 9.159-10.699 8.0159-8.9438-0.65721 0.53336-2.6355 3.0508-3.2685 3.9751-4.9323-0.91357-3.7892 1.7033-7.6191 2.3185-11.837 0.37445 4.2683-3.5285 11.118 1.3251 13.811 0.71176-2.9104 1.0199-6.2215 4.3066-6.5757-1.7638-1.0579 0.35101-2.8291-0.66299-4.9323-0.043884-1.2708-1.3436-1.297-1.6556-2.3016-0.45532-1.0405-0.072113-1.0995 0-2.3016-1.1105-0.97368-1.7063 1.3608-2.9816 1.3153 0.22424-2.079 2.1148-2.5039 3.3121-3.6169-0.66202-1.5409-2.4814-1.0453-3.6436-1.6444-1.2041-0.62041-2.7505-1.9541-3.9751-2.9588-2.265-1.8583-3.4759-3.0275-5.3002-5.2613-0.60648-0.74236-1.7189-1.4305-1.988-1.9725-0.95456-1.929-0.45825-3.8899-0.66205-6.5757-0.15015-1.9793-1.2665-4.2838-0.66299-6.5757 6.5423 2.742 6.3005 11.764 9.9373 17.756 0.12674 0.21002 0.45435 0.26617 0.66205 0.65718 1.3543 2.5503 3.6124 5.5527 7.2872 5.9185 1.3036 0.52652 0.11502-1.4199 0.9935-1.3153 1.0648-0.2894 0.45438 1.084 1.3251 0.98625 3.8425-1.4982 7.3984 0.32134 8.9438 2.9598-4.4568-6.2079-9.4381-14.744-15.568-20.386-6.3239-2.5997-9.8964-7.9317-14.906-11.837-4.1721 1.3124-6.7832-2.108-9.9373-1.6444-1.2061-0.90399 1.211-0.96498 1.6566-1.3154 2.459 0.6272 3.8289 2.3365 6.9557 2.3016-0.51092-4.097-7.4774-4.6332-9.6058-8.2201-1.8896-0.59137-3.7888-0.38133-5.3001-0.65816-3.4379-3.163-7.724-5.4849-10.599-9.2064-0.80243 0.1897-0.73709 1.2418-0.99451 1.9735-1.1144-0.50621 0.75076-1.927-0.66202-1.9735-0.96625 1.1343-0.55087 2.2213 0.33148 2.9598-0.84921 1.897-1.3708 4.1193-1.6565 6.5757-0.73418 0.18098-0.47191-0.6272-0.99353-0.65718 1.0803 2.6994 0.25252 5.4384-0.66302 7.891-0.65227-1.3163 0.58794-3.5734 0.66302-5.2614-2.3468 4.5887-1.1573 8.677-1.988 14.468-0.73419 0.18098-0.47189-0.62718-0.99353-0.6572-0.12482 1.2553-0.46704 1.2728 0.66202 1.6444-2.5243 5.5643-2.0319 12.225-2.9816 19.071 3.1502-0.38037 2.6091-4.4251 4.6372-5.9185 3.1571-9.7068 6.1952-20.453 13.912-25.648 0.88046-0.59235 2.0563-1.9193 3.3121-1.3153-1.1115 3.0478-2.1567 6.9822-3.9751 10.193-1.1047 1.9522-1.9588 5.5992-3.6436 7.8911-0.87848 1.1953-2.5925 1.7209-3.6436 2.9598-1.405 1.656-2.2347 4.126-3.6436 5.9185-0.68544 0.87302-1.7053 1.4528-2.3186 2.3016-1.4206 1.9657-2.3147 4.2383-4.9686 5.2613-0.81317 5.2255 1.1554 8.6876 0.66202 14.468 4.4694-2.8058 6.8407-9.4193 12.587-9.8646-1.1876 11.535-7.4247 18.058-12.256 25.976 2.3966 9.3487 2.6823 20.792 6.6242 28.606-1.0696 1.5989-0.11603 2.8223 0.33151 4.6042 0.71857 0.055145 0.15015-1.1663 0.33148-1.6444 1.6829 1.2292 1.4294 3.4911 1.9871 5.2614 0.94186 2.9878 2.7515 5.6775 3.6436 9.2074 6.632-2.5213 3.2331-11.879 2.6501-19.4-0.17844-2.29 0.15311-4.9594 0-7.2339-0.26617-3.9402-1.715-7.2097 0.99356-9.5364 3.1717 1.1837 6.0129 8.6837 6.6242 13.481 0.38611 3.0343-0.22232 5.544-1.325 7.563-0.36371 7.7498-3.472 12.774-7.9493 16.439 2.2396 9.2858 5.6141 17.443 7.2872 27.291 1.5776-2.6974 3.9732-5.7869 4.6372-9.2064 0.53723-2.7623 0.078003-5.8014 0.66299-8.5492 0.63281-2.9714 2.108-6.1498 2.9806-9.2074 1.6312-5.7075 3.4476-10.505 6.2937-14.796 2.2513 0.78589 1.8515 4.7823 1.6566 6.9048-0.32565 3.5308-1.3162 7.2919-1.988 10.851-0.39877 2.1138-1.1271 4.3099-1.9871 6.5767-1.2968 3.4137-2.6208 6.3202-4.3066 9.2064-1.988 3.4049-4.2628 6.8351-7.2872 9.2074 1.0988 5.3688 0.39291 11.101 1.6565 16.769 1.2402 5.5672 2.9046 13.233 1.9871 20.385-0.27304 2.1313-1.5737 3.9479-0.99356 6.2476 0.50507 1.2911 2.4063 0.8895 2.9816 1.3154 0.23108 1.4344-0.95651 1.4615-0.99356 2.6306-0.8804 0.002899-1.8915-0.12485-2.3185 0.32907-2.8987 1.9445-4.3739 5.303-7.6178 6.9048-0.96622 2.9588-3.2741 5.0329-4.9687 7.562-4.8526 7.2435-6.7295 17.267-10.931 25.648 11.57-5.9428 24.591-10.444 36.436-16.111-1.3387 2.6162-5.3138 2.6162-7.2872 4.6032 3.1824 1.0395 6.1981-1.8757 9.6058-2.9598 3.511-1.116 7.0893-2.9075 10.931-2.3016 1.2597 2.6113-2.0816 3.1979-4.3066 3.9451-4.6235 1.5544-9.1661 4.005-16.23 3.6169-0.6796-0.31165-0.91751-1.0618-1.325-1.6434-6.8348 2.9694-13.694 5.9156-20.537 8.8773-0.87848 0.47522 1.2168 0.73556 0.66299 1.9735-1.6224 5.7327-4.6098 10.11-7.2872 14.796 4.8731 0.52557 6.8533-4.9206 10.599-6.9048 2.9591-1.567 6.2196-1.4363 9.6058-2.9598 1.0218-0.082275 1.016-1.1837 1.6566-1.6434 1.3738-0.090027 1.2909 0.43066 2.3186 0 3.8318-2.3345 8.6649-3.675 13.581-4.9333 1.2188-2.6258 1.9091-5.7772 4.9687-6.5757-0.4826 2.6994-3.2204 3.1601-3.6436 5.9186 3.6222-1.0531 7.256-3.527 10.6-5.5895 5.4552-3.3672 12.238-7.1806 21.53-6.5767 1.794 0.11713 3.2068 0.93787 4.9686 1.3154 4.6772 1.0008 9.9939 1.1266 13.912 3.6159 4.8233-0.082245 10.751-0.43845 15.568 0.65817 4.9335 1.1227 10.745 2.652 11.924 6.2476-3.4398 3.5463-6.6964 1.0743-9.9373-0.3291-1.3874-0.60101-2.9933-1.084-4.3056-1.6444-4.5845-1.957-6.8534-5.0242-11.262-3.2869 3.3394 2.5523 7.219 4.4851 10.931 6.9048 1.1125 0.72498 2.1821 1.656 3.3121 2.3016 0.78198 0.44714 1.8223 0.24387 2.6501 0.65814 0.87067 0.43555 1.64 1.6734 2.6501 2.3016 1.0715 0.66687 2.421 0.96982 3.3121 1.6444 1.7579 1.3318 2.9903 3.4892 4.9687 4.6032 1.0901-0.014526 1.6487-0.55456 2.9816-0.32907-0.24084 1.0056 0.57135 0.96692 0.3305 1.9725 3.5022 2.5387 6.7802 4.9555 10.6 7.5629 2.5477 1.7393 4.406 3.7728 8.2807 3.945 8.8502 0.39298 18.726-7.3374 27.823-2.3016-0.38419 2.1719-3.1863 3.6498-4.9687 4.2741-1.3972 0.48975-3.6124 0.60202-5.6307 0.98724-2.8304 0.54004-5.9719 1.2243-10.599 0.98721-2.0407-1.2631-3.9381-2.6674-6.9557-2.9598 6.5823 2.891 10.325 8.6015 19.212 9.2064 0.69614 0.51489 0.81024 1.6067 1.6556 1.9735 4.9521-1.6851 7.0006-6.9996 10.268-10.851 2.7076-3.1911 4.7366-4.2644 9.2753-5.9186 1.1778-0.42972 2.3244-1.7654 3.6436-0.98721-0.57431 2.7062-1.8613 5.4414-3.3121 7.562-0.7449 1.0888-2.2923 1.8738-3.3121 2.9598-1.0433 1.1111-1.6702 2.4478-2.6501 3.2879-3.316 2.8446-8.0584 4.7232-12.918 5.5894 0.79953 1.5921 2.7066 1.3473 3.9742 1.3144 4.1486-0.10355 9.0997-3.9121 13.581-5.5885 3.1191-1.1673 7.7045-3.0556 10.931-3.946 2.1538-0.59424 3.9225-0.36972 5.6307-1.3153 1.014-0.56039 1.2656-1.537 2.6501-1.9725-0.95746 5.5236-4.5601 7.2687-10.268 9.8645-4.4324 2.0151-7.1537 2.9684-13.25 3.2869-3.2214 0.16843-6.6203 1.0676-9.2752 0.98724-4.0307-0.12195-7.1381-2.0848-8.6123-5.2614-7.4042-0.65039-10.429-5.6495-16.23-7.891 0.36466 1.505 0.92822 3.6827 1.9881 4.9323 0.60938 0.72006 1.792 0.95142 2.6501 1.6434 2.0797 1.6793 3.6397 4.3796 5.6307 6.5767 1.3221 1.4596 3.3911 2.289 4.3057 3.946 0.9292 1.6802 0.87457 3.9692 1.6556 5.9175-9.8408 0.44815-12.638-8.9325-16.56-15.454 1.5951-4.9371-2.6199-5.6011-3.3122-9.2074-5.6258-3.403-10.544-7.5078-15.569-11.508-0.62888 1.8254 0.3237 6.9019 3.3121 7.2339-0.044861 1.3598 0.75269 1.8825 1.325 2.6306-0.44074 1.4121-1.481 0.090027-2.3186 0 0.52261 1.1044-0.00293 2.4449-0.66302 3.2879 2.3673 6.3754 3.6446 11.962 3.9742 20.057-0.86096 0.19742-1.1925-0.13165-0.99356-0.98627-0.76343 1.5844-1.1983 3.9141-1.988 5.5894-0.67084 1.4266-1.6381 3.3701-3.6426 3.2878-4.2618-0.17709-5.4259-8.1543-3.3121-12.824 1.2422-0.51974 2.1548-1.3676 3.9742-1.3144-0.81705-7.7517 0.78684-12.347 1.988-18.413-2.144-2.3655-4.1009-4.9178-3.9751-9.5364-0.69229-0.5188-2.1996-0.22748-2.9816-0.65817-1.6117-2.7904-4.2247-4.5219-6.9558-6.5757-0.96524-0.72592-1.8096-1.8583-2.6501-2.3016-0.97989-0.51782-2.3127-0.41617-3.3121-0.98721-0.99747-0.57007-1.9881-1.6115-2.9816-2.3016-1.1144-0.77527-2.1831-1.3115-3.3122-1.9735-4.7366-2.773-9.9275-5.816-15.9-7.891 0.97696 1.6783 2.7027 2.9859 4.3066 4.2751 1.4508 1.1663 3.1044 2.5155 4.6372 3.616 3.2029 2.3006 7.4549 3.8231 8.9438 7.892-7.9258 0.52652-16.144-3.8057-18.55-10.194-0.86581-2.2977-0.29443-4.7223-2.3186-6.5757-2.1977 0.27197-5.2202-0.67267-7.6178-0.98724-6.5686-0.85849-12.776 0.55655-17.555 2.6307 4.3866-0.048431 10.026-0.047455 13.249 1.9725 0.9136 2.9298 4.3895 3.3149 5.3002 6.2476 0.62692 0.3649 1.5649 0.42007 2.3186 0.65817 0.62109 0.62619-0.19696 0.59427 0 1.6435 4.4071 4.4396 11.942 7.7904 19.875 5.9185 5.461 2.7246 12.026-0.52072 17.555 0.32907-0.15405 1.5128-2.1519 1.0375-3.3121 1.3153-2.8802 0.68817-8.8833 1.6957-13.581 0.98627-0.68542-0.10358-1.3582-0.60202-1.9871-0.65817-2.1986-0.19354-4.5572 0.34265-6.6242 0-2.3088-0.38229-4.525-1.835-6.6242-1.6434-3.8942-2.9298-8.0322-5.6175-10.599-9.8636-3.473-1.2253-5.8325-4.6574-10.269-4.9332-2.4902-0.15387-5.1997 0.99014-7.9492 0.65814-1.0491 0.16455-1.3543 1.0685-1.6566 1.9725-4.0951-0.42587-6.281 3.5337-10.269 4.2751 0.84921 2.6858 4.447 1.4054 6.9557 1.6435 2.8383 0.26904 5.7565 1.5883 8.2808 1.6444 1.6254 0.035828 3.2858-1.2302 4.6372-0.32907-3.2312 2.8882-10.458 0.39587-13.912-0.65814-2.0329 0.72977-5.5771 0.33588-6.6242-0.98721-1.0384 1.4131-2.0534 0.73944-3.3121 0-5.773 0.98529-10.249 4.3564-15.236 6.2476-3.2175 1.2205-6.788 1.4102-9.6068 2.6307-2.7798 1.204-4.8907 3.7824-6.6242 5.9185-3.2819 0.68716-4.7405 3.1852-8.2808 3.6169-2.187 3.0894-5.3119 5.2488-6.9557 8.8773 0.043869 1.6009 1.9783 1.3241 2.6501 2.3026-0.77905 1.5283-3.5383 1.0908-4.6372 2.3016-2.4385 5.2478-6.241 8.6422-10.599 12.165-1.0316 0.83334-1.9296 1.9629-2.9816 2.6307-1.1144 0.70752-2.5253 0.84689-3.6436 1.6444-1.4391 1.0269-1.989 2.6539-3.3121 3.945-2.3858 2.3277-5.7691 3.795-8.9438 5.2614-3.1074 1.4354-6.361 2.9714-9.6058 4.2751-2.7875 3.041-7.8888 3.7864-10.599 6.9048-0.42316 0.45685-1.5639 0.20132-1.9871 0.65814-1.2558 0.59814-2.0534 3.0972-3.9751 1.9725 1.6585-2.408 4.7386-3.4069 6.9557-5.2613 0.099442-1.477-0.42413-1.8099 0.66203-3.2879-2.8032-5.6204-6.3854 1.7199-7.2872 4.9322-1.4879-0.49939 0.005844-1.9822 0.3315-2.9587 0.80438-2.41 1.8584-4.8597 3.6436-6.2476 4.3183-1.113 7.6811-3.7243 11.594-5.5894 6.3707-3.0391 11.547-7.5765 17.555-11.18 0.63571-0.46362 0.59964-1.597 0.99353-2.3016 6.126-1.3192 10.315-5.7579 13.912-10.522 1.7618-2.3326 2.6462-3.103 3.3121-6.2476-4.0268-10.728 7.4423-18.961 14.574-22.688-0.60255-1.1218 0.044861-1.5796 0-2.9598 5.5839-10.02 7.0874-24.092 15.9-30.908 0.4212-1.116 1.1759-1.9019 1.6556-2.9598 2.0202-1.174 3.4554-2.9268 4.6372-4.9322-0.96234-7.261 1.7219-13.07 0.99353-19.729-0.52356-4.788-2.2678-8.946-2.3186-14.139-0.038025-3.8521-1.4391-7.7701-0.99353-11.836-3.1044-2.9656-5.3567-5.3591-10.269-5.9186-2.0251-0.23032-4.29 0.302-6.6242 0-6.1952-0.80139-11.748-4.4357-16.562-7.2348-1.6078-0.93497-3.9654-1.355-4.3066-3.2869 4.602-0.81879 9.2987 1.055 12.919 2.3016-0.27397-1.5147-2.3537-4.971-0.66302-8.2201 0.6523-1.2553 1.6371-1.4934 2.6501-2.3016-0.67374-2.7517 0.17256-4.7958 0.99451-6.9058 1.5093 1.6396-1.0179 4.9758 0.66203 7.2348 1.56-0.64459 0.94186-3.4495 2.6501-3.946-0.68251-1.6241-1.7735-2.8426-1.9871-4.9323-1.2656-0.27005-0.39002 1.5854-1.6565 1.3144-0.076065-1.2805 0.71175-1.7044 0.99353-2.6307-4.411-3.1833-7.179-7.9985-11.593-11.18-0.12479-2.1332-3.3482-2.7246-2.6501-4.6032 9.3211 2.3655 14.761 8.5831 20.205 14.797-0.26131-4.3254-3.9293-5.5382-5.9622-7.891-0.94771-1.0975-3.085-4.7154-3.6436-6.2476-0.23303-0.63879 0.13748-1.2098 0-1.9725-0.24181-1.3405-1.1651-2.7526-1.325-3.946-0.26422-1.9735 0.79268-4.249 0.33151-6.5767-0.50604-2.5445-5.1071-5.8914-6.9557-7.8911-0.88141-0.95236-2.3517-2.1796-3.6436-3.6159-1.2071-1.3434-2.1938-3.4089-3.3121-3.946-2.8207-1.3531-7.4208-0.54005-11.262-0.98625-2.9367-0.34168-5.8588-1.658-8.6123-3.2879-3.7528-2.2222-7.255-3.9121-7.9492-9.2064 6.0743 2.2997 10.556 6.1818 16.893 8.2201-2.616-3.6508-6.827-8.5666-11.262-11.508-4.1311 0.82269-6.0977-1.7751-9.2743-2.9598-1.6049-0.59912-3.4622-0.44522-4.6372-0.98627-2.6325-1.2118-7.4656-6.3531-8.9428-9.2074-1.3913-2.6858-2.03-5.7811-2.6501-8.2201 2.6043 0.027115 3.005 2.8272 4.3057 4.2751 2.1655 2.4081 5.3869 3.8938 7.2872 6.5757 3.0645 1.1663 5.4766 2.5474 7.9493 4.2751 2.6325 1.839 4.3466 4.4822 7.6187 5.9186 0.069214-2.7594-2.9046-3.9083-4.6372-6.2476-1.7589-2.3742-2.2562-5.331-2.9816-8.5492-0.80048-3.554-2.4063-7.7246-0.66203-11.509 4.0102 3.3885 4.6918 9.4029 6.6242 14.468 0.48752 1.2766 1.52 2.3887 1.9871 3.6169 1.3036 3.4214 1.2032 7.0858 2.9816 10.193 3.5149 1.8602 5.0925 8.4911 8.6123 10.851 2.5311 1.6967 5.7886 1.267 8.6123 3.2879-0.57819-5.3572-4.6693-13.792-1.988-20.386 3.4876 2.7052 4.9569 7.6539 6.6242 12.166 0.84534 2.2861 1.8252 4.5732 2.6501 6.9048 1.6838 4.7561 1.3816 10.19 4.9687 13.152 0.72249-6.0066 0.30518-11.03 2.3186-16.44 0.93405-2.5097 3.3092-4.6652 3.6436-6.9048 0.31102-2.079-0.73225-5.9834-0.99355-8.8773-0.17551-1.9445 0.33443-3.3788-0.66205-5.2614 1.0462-1.1353 0.72932-3.5047 0.99356-5.5895 0.63667-5.0155 1.1583-9.2964-2.6501-11.837-1.4996-0.99982-2.4756-2.1032-3.9751-0.65814-1.0764 0.66783 0.36466 3.3266-0.3315 3.6169-0.79268 0.74817-1.3484-0.59331-1.325-1.6434-1.0862 1.114-2.2493 2.1516-3.3121 3.2878-0.34712 1.838 1.0949 3.644-0.33054 4.6032-1.2441-0.5188-0.87653-2.6374-0.99451-4.2751 2.5097-1.8931 3.3891-5.4036 6.2937-6.9048-4.722-2.2145-9.7189-2.74-13.249-5.9185-1.3601-1.2244-2.5545-3.5792-3.9751-5.2614-3.0254-3.5811-6.8153-9.6197-6.9557-16.44 2.2367-0.35519 3.3404 1.9812 4.6372 3.6169 3.1727 4.0002 6.8592 9.3893 10.599 13.152 1.0433 1.0492 2.4366 1.6425 3.3121 2.6307 0.95062 1.0714 2.0232 3.5773 3.6436 4.9323 0.092606 0.077438 3.9966 2.6055 4.3066 2.6307 1.1037 0.088074 2.261-1.869 3.3121-0.98721-0.3042-1.5612-1.0891-2.6452-0.99452-4.6032-2.3205-4.5712-6.6008-6.9735-8.6123-12.166-0.72832-1.8786-0.99353-4.0902-1.6565-6.2476-0.60255-1.9628-1.5113-3.7253-1.6565-5.9186-0.10141-1.5408 0.45046-3.102 0.3315-4.9323-0.1638-2.5184-2.0017-5.4472-0.3315-7.562 1.8554 0.46071 2.7086 1.9144 4.9686 1.9725 3.6807 3.4698 3.5978 10.677 6.6252 14.797-0.051666 3.0507 1.9062 5.7259 1.3251 8.2201-1.1574-1.9522-1.3426-4.3612-1.988-6.5757-0.60353-2.0713-1.7804-4.0631-1.9871-6.2476-1.5191-2.439-2.342-5.5672-3.6436-8.2201-1.2831-0.80817-2.8236-1.3618-4.3066-1.9735-0.030228 2.652 2.5994 4.4532 3.3121 7.2339 0.21939 0.85655-0.14916 2.049 0 2.9598 0.19891 1.2098 1.2061 2.0809 1.6566 3.2878 0.7683 2.0616 0.76636 4.5268 1.325 6.5767 1.3933 5.1142 4.0668 9.6739 5.6307 13.81 1.5668-2.892-0.83948-6.0395 0-8.8773 3.4642 4.3816-0.49431 11.15 2.3186 16.111 2.7466-2.9617 1.5951-7.0267 2.3186-11.18 0.17258-0.98917 1.0198-1.957 1.325-2.9598 0.95552-3.1388 0.86581-7.5165 1.6565-11.179 0.55966-2.591 2.5146-4.9952 1.6566-7.5629-0.44752-0.87012-1.8564-0.78688-2.6501-1.3153-0.86484-1.2234-2.1714-2.0093-2.6501-3.6169-5.5488-3.1504-6.8455-10.522-11.262-14.797-1.0072-2.2145-2.2084-4.2432-3.3121-6.2476-1.0823-1.9648-2.9094-3.5008-3.3121-5.9185-4.018-0.81398-7.5378 0.13162-10.269 1.9725-2.0319 1.3705-4.2813 3.0323-5.9622 4.2751-2.655 1.9619-4.2823 4.3641-6.9557 6.5757-1.3231 1.0946-3.5471 3.8047-6.2937 2.6307-0.3237-4.218 3.1844-7.3162 4.9687-10.522 5.0232-4.4609 14.899-7.1681 23.518-5.9186-1.4625-4.1028-4.293-7.6404-6.6252-12.494-2.0163-4.1996-2.7944-7.8688-6.6242-9.5355-0.39-2.5726-1.9003-4.0322-3.3121-5.5895-1.7433-0.41522-1.9646 0.68138-3.3121 0.65719 0.64642-1.8235-1.4654-1.9967-0.66301-2.9598 1.8272-0.38812 1.0462 1.8118 2.9816 1.3153 0.54405-1.2234-1.3562-1.0685-1.9871-1.3153-1.8935-0.7414-3.7577-0.69397-6.9557-0.98627-4.0833-0.37264-8.5538-1.3589-12.256-0.65719-2.6657 0.50426-5.5858 2.3103-8.6123 2.6307-1.9364 0.20422-4.1204 0.34069-5.9622-0.65815 0.17158-1.5834 1.9832-1.5389 2.9816-2.3016 3.1941-3.1456 6.9616-6.0705 12.256-5.5895 2.2367 0.20325 4.5504 1.9319 7.2872 2.6307 1.1174 0.28552 2.5311 0.047417 3.6436 0.32907 3.082 0.78011 7.0981 3.4437 10.269 4.6032-0.82193-5.3214-3.4984-8.8018-4.6372-13.81-2.3576-1.2911-4.2237-4.3835-7.2872-5.5895-3.4681-1.3666-9.2324-1.6057-13.912-2.6307-1.4956-0.32715-3.0391-1.1518-4.3066-1.3153-3.9966-0.49942-8.1462 1.9386-11.594-0.64267 0.51286-3.674 9.2782-5.7704 14.906-4.6032 6.3912 1.325 12.407 5.0978 16.562 7.2339-2.2386-4.0738-7.0484-5.1965-11.261-7.2339-3.1698-1.5321-5.7487-3.134-8.2808-5.9185-0.96721-1.0637-1.5327-3.6276-2.3186-5.2614-0.5733-1.1924-1.6692-2.138-1.6565-3.6169 4.6771 0.15002 6.9684 4.279 10.269 7.2339 1.8623 1.6676 3.6426 2.9588 5.3002 4.6032 3.4574 3.4311 6.3171 7.3297 9.9373 10.193 0.063385 1.4712 0.84729 2.228 1.6566 2.9598 0.061417 0.92818-1.3036 0.82462 0 1.3153 1.3552-0.7172-0.13554-4.9071-0.33151-6.5757-0.19012-1.6164 0.14526-3.3575-0.3315-4.9323-0.99646-3.2937-4.409-5.0813-6.2937-8.2201-1.171-1.9512-1.4986-5.1597-2.3186-7.892-0.19208-0.64074-0.84045-1.3889-0.99353-1.9725-0.43195-1.6502-0.15212-3.4156-0.66203-4.9323-0.66788-1.9832-2.7837-3.6828-3.9751-5.9185-1.0384-1.9493-2.7183-4.9661-0.66302-7.2339 1.5893 0.50523 2.497 2.077 3.6436 3.2879 2.5448 2.6858 4.6313 4.6429 6.2937 8.5492 0.77026 4.1396 1.3962 8.2647 2.3186 13.152 0.36855 1.9522 0.78194 4.0709 1.325 5.9185 0.50116 1.7054 1.7687 3.1301 2.3186 4.9323 0.99744 3.2666 0.54211 6.7141 1.325 10.193 1.484-4.3361 1.8408-9.791 2.9816-14.468-3.2634-6.0405-3.0352-18.54 0-24.66 2.8197 2.0238 1.5717 8.0856 2.9816 11.509 1.9715-1.8786 2.1031-5.5856 4.6372-6.9048 1.7452 0.67848 2.2152 2.6229 3.3121 3.946 0.078979 10.526-3.0927 18.284-5.9622 26.305-0.75856 2.1206-1.9081 3.824-2.3186 6.2476-1.0335 6.0957 0.05069 12.032 1.325 18.085 0.81511-5.4191 1.169-10.829 2.9816-15.454 0.7605-1.9406 2.3693-3.5802 2.9816-5.5895 0.30713-1.0095 0.032166-2.3093 0.3315-3.2879 0.72054-2.3558 2.6023-5.4685 4.3066-7.2339 1.6731-1.7335 3.8454-3.3585 5.6307-4.2751 3.2507 6.3512-2.7008 11.369-5.3002 15.125-1.5278 4.6206-3.4486 8.8522-6.9557 11.508-1.1027 3.1794-3.2663 5.3068-2.6501 10.194 1.1895 1.0104 2.106 2.2938 1.988 4.6032 0.5899 1.1682 2.1636 1.3599 2.9816 2.3016 3.0342 6.4131 6.1708 12.727 9.6058 18.742 3.9819-2.9491 4.3681-8.1146 3.3121-13.811-0.4251-2.2919-1.9022-4.5926-2.3186-7.2339-0.27106-1.7218-0.34514-4.1986-0.3315-5.9185 0.047775-5.6069 0.71761-12.064 4.6372-15.125 2.8607 0.8856 1.443 4.2199 1.325 6.2476-0.15501 2.6558-0.63766 5.8227-0.66301 8.2201-0.014633 1.4412 0.45436 2.6413 0.33151 3.946-0.1248 1.3163-0.82486 2.6423-0.99355 3.946-0.63962 4.9381 0.26228 10.23-1.325 14.139 0.84923 0.92722 1.3426-1.2786 2.6501-0.98627 2.0885 0.72786 2.9748 0.40361 5.3002 0 4.0122 1.4354 4.0638 10.083 0 10.851-4.7434 0.89529-5.813-4.8848-4.3066-9.5355-1.8018-1.1034-1.559 2.2987-3.9751 1.6434-0.56354 1.7431-1.3484 3.2646-2.3186 4.6032 0.19499 2.9791 2.4063 4.9003 3.9751 7.5629 3.3102 5.6185 7.1322 10.983 10.268 16.769 1.9676 2.1032 4.1038 4.036 5.9622 6.2476-1.1456-3.3846-1.3055-7.0229-1.988-10.523-0.70784-3.6295-2.3702-6.7519-2.6501-10.851-0.18915-2.7807 0.97696-5.122 1.325-7.891 0.41339-3.284-0.31396-5.9011 1.988-7.8911 1.5366-0.16744 1.0511 2.9094 0.99355 3.2879 0.33247 1.5757 2.4093 2.079 3.3121 3.946 1.3933 2.8794 0.93213 8.6441 1.3251 14.468 0.31979 4.731 1.6107 8.6992-0.66302 11.837 0.46701 2.5126-0.79071 4.8103-0.33054 6.2476 1.2588-2.1477 2.3176-4.4948 2.9806-7.2339 1.3318-2.2232 3.1824-4.5209 3.3121-7.891 0.080902-2.0945-0.92725-4.3041-0.66302-6.5757 0.26523-2.2774 1.1242-4.1367 1.988-5.9185-0.021423-3.3004 1.756-6.1896 2.3186-9.2064 0.55478-2.9772 0.42703-5.722 1.6566-8.2201 1.6682-3.3895 4.7766-5.5033 6.2937-8.8783 3.084 2.711 1.1339 9.2132 0.33054 12.824-1.5756-2.3877 2.3088-7.3103 0-10.522-1.2948 1.4925-1.9149 3.6005-2.6501 5.5895-0.69907 1.8931-1.8866 4.0389-2.3186 5.9185-0.54599 2.3722-0.43289 4.6226-0.99353 6.9048-1.4196 5.7704-4.6537 11.49-5.3002 17.756 3.0654-1.7093 4.6382-5.4394 5.9622-9.2064 1.6263-4.6264 4.0346-8.0895 4.6372-13.811 0.70691-0.15388 0.63083 0.46944 0.66205 0.98627 2.1577-6.626 5.4679-12.109 10.269-16.111-4.8828 0.44426-6.5979-5.0552-8.2807-8.8773 5.6687 0.181 8.1325 3.5444 10.599 6.9048 0.051666 0.92722-0.93604 0.82462-1.325 1.3153 1.4323 0.31843 2.4151-2.6394 4.6371-2.6307 0.4339 0.75301-0.23691 2.681-0.66299 3.6169 5.8988 1.7073 6.9655 8.2114 11.924 10.851-1.3163-11.298-3.7704-21.466-7.6187-30.251-3.163-2.1913-8.3022-1.4228-13.912-1.9725-4.2676-0.41909-9.7803-2.3645-11.593-4.6032-0.61621-0.76075-1.4342-2.228-0.99451-3.6169 2.5848 0.041618 5.6278 0.1626 8.9438 0.98626 2.7856 0.69203 4.4392 2.5978 7.2872 3.946 3.1386 1.4857 6.8504 1.6947 9.6058 3.946-0.52261-4.9932-1.7794-8.8038-3.9752-11.837-1.3162-1.8186-3.8864-3.375-5.9622-4.9323-4.6947-3.5231-10.023-6.4122-12.919-11.837-0.29153-0.54684-0.272-0.73849-0.66205-1.3153-0.66589-0.98336-1.8398-3.6421-1.325-5.5895 3.5666 0.018394 5.2514 3.4388 7.6177 6.2476 3.7753 4.4783 8.0244 9.7455 11.594 14.468-0.30423-3.4282-4.2901-7.7952-2.6501-13.152 1.8905 0.7259 2.8617 3.5356 3.3121 5.5894 0.13843 0.62912-0.078003 1.5699 0 2.3016 0.13843 1.3066 0.84726 2.4613 0.99353 3.6169 0.1199 0.94562-0.25742 1.9928 0 2.9598 0.72732 2.7255 3.665 5.391 4.3066 8.5492 3.2809-4.6458-0.11993-9.0883-0.66205-13.811-0.67764-5.9021-2.3751-14.092 0-17.098 2.4083 0.11809 2.6325 2.7158 3.3121 4.6032 1.2266 3.406 1.8691 5.5527 1.6565 9.8646-0.18915 3.8328-0.22034 7.9162-1.325 11.837-0.84824 3.0101-2.9192 5.7811-1.9871 9.2064 1.0686 3.9305 4.0112 8.225 5.3002 12.824 0.49921 1.7809 0.42703 3.6789 0.9935 5.5895 0.85901-9.9981-0.81409-22.51 3.6436-28.936 2.462 0.73656 2.1148 5.7366 2.3186 9.2064 0.52554 8.9315-4.0112 17.208-5.9622 23.674 1.5132 2.8823 1.7658 7.0161 2.3186 10.851 2.1938-1.2698 1.6819-4.5016 1.9881-6.5757 0.67276-4.5674 0.95453-8.9015 3.3121-11.837 0.77124-0.96014 2.2249-1.4092 2.9816-2.3016 0.73322-0.86528 0.96429-2.1574 1.6566-2.9598 0.86874-1.0056 2.186-1.4934 3.3121-2.3016 1.0199-0.73171 1.797-2.2687 3.3121-1.9725-0.068237 8.7002-8.4446 9.1541-8.9428 17.426-3.0459 2.6974-7.1332 10.074-6.6242 16.111 0.14624 1.746 1.3728 3.7176 1.6556 5.9185 0.29739 2.3074-0.15405 4.8268 0.33148 6.9048 0.50217 2.1506 2.3274 4.3874 1.9881 7.892 2.1099-6.8942 4.9306-13.081 6.6242-20.386 4.7756 1.1489 3.7021 7.2532 3.3121 13.482-0.32175 5.1452-2.2084 10.472-2.9806 13.811 2.6862-2.0519 2.6647-6.1799 4.6372-9.2074 1.2227-1.8757 4.9394-6.2244 6.9557-7.562 0.76148-0.50523 1.8438-0.54684 2.6501-0.98625 1.4547-0.79366 2.38-2.8291 4.3066-2.6307 1.4723 4.9797-2.7027 6.5767-5.3001 9.2064-1.2646 1.2815-1.8379 2.9927-2.6501 3.946-1.5395 1.806-3.7743 3.0236-5.6307 4.6032-1.912 1.627-3.317 3.854-5.6307 4.6032-0.93506 4.6613-3.3375 7.8659-5.6307 11.18-0.30029 3.1001-1.2909 5.514-1.6565 8.5492 1.133-0.093872 2.5048-1.6115 4.3066-2.9598 1.5084-1.1285 3.589-2.1845 3.9751-3.6169 0.3851-1.4296-0.52457-2.6346-0.33057-3.946 2.3761 0.3978 0.51288 2.982 0.99356 5.2613 3.1708-0.35519 5.8608-0.68622 7.2873 1.6444 2.1528 3.5163-0.2243 9.8955-4.6372 8.8783 0.7966 3.7108 0.24377 7.5107-2.3185 8.2201-6.9392 1.9222-7.8313-10.264-2.3186-12.166-1.4557-5.2081-6.752 0.026123-7.2872 2.9588-0.93408 5.1123 3.2458 9.6468 3.9751 16.112 0.2038 1.8118-0.21838 3.5114 0 5.2614 0.91653 7.3694 5.3402 11.244 7.6178 14.139 0.33441 0.54492 1.4069 0.35715 1.988 0.65817 0.27399 1.3405 0.05072 1.1324 0 2.6307 2.4268 4.6051 3.8084 10.249 5.6306 15.454 1.1037 0.10938 1.4694 0.95241 2.9806 0.65718 2.771-2.4255 0.98086-7.7778 1.325-10.851 0.28763-2.5707 2.0027-3.6498 1.6566-7.2339-0.07019-0.72978-0.41339-1.6938-0.66202-2.3016-2.265-5.5314-7.5427-10.715-8.2808-17.756-0.2886-2.7497-0.029266-5.7201 0-9.5355 1.8213 0.34456 2.42 2.5629 3.3121 3.946 4.0151 6.2244 6.0148 15.484 6.6242 25.648 4.0716-2.0828 2.9738-10.982 4.6371-15.454 1.3504-3.6295 4.2657-6.93 6.6242-9.8646 1.2529-1.5583 2.7281-2.9249 3.6436-4.6032 0.87653-1.6076 0.75464-4.4551 3.3121-4.9323 1.9481 5.8566-0.39291 12.033-2.6501 15.783 4.7454-2.9665 9.1339-10.872 17.224-10.522-1.2753 4.3061-4.8185 7.1961-7.9493 10.194-3.7157 3.5569-6.9313 7.1661-12.918 8.5492-3.1327 4.1241-3.9547 10.543-9.9373 11.837-3.1396 2.5378-2.34 7.7052-3.3121 11.837 2.2036-0.55266 1.9412-2.4778 3.3121-3.6169 6.2391-5.1888 17.489-1.2989 25.837 0-1.1291 2.9598-7.3954 3.9238-11.262 4.2741-5.2787 0.47911-13.293-2.5532-17.887 0.98723 0.11215 2.8514-0.48749 4.9962-2.9816 5.2614-0.17258 1.5244 0.86194 2.6307 0.99356 4.2741 0.096527 1.2002-0.38315 2.3094-0.33151 3.6169 0.15308 3.8473 2.2104 8.3324 2.6501 12.823 0.10818 1.1014-0.079987 2.1497 0 3.2879-0.71179 0.36682-1.5903-1.0714-1.325 1.3153 0.46506 1.055 0.01947-1.4692 1.325-0.65814 0.36169 2.772 0.10526 4.336 0 7.2339 1.5288 0.20227 1.9061-0.7385 3.3121-0.65817 1.0832-2.1148 2.7028-2.1196 5.6307-3.616 1.8428-0.94269 2.7525-2.318 5.2992-2.3016 2.8032 0.016449 4.8595 2.1516 7.6187 2.6306-1.6146 2.3587-4.9521 1.9367-7.6187 2.6307-0.7225 0.18778-1.3328 0.76071-1.9871 0.98624-3.4262 1.1818-7.8742 0.55655-11.593 1.6444-1.1369 2.5552-0.31982 5.4278-0.33151 8.2202-0.002899 0.83816-0.49042 1.7005-0.33151 2.6307 0.37247 2.1758 2.3654 4.1396 1.6566 6.5757 0.43973 0.87882 2.2152 0.43164 2.9816 0.98721 2.694 2.019 2.379 8.5589-0.9935 9.2074-4.4373 0.85269-6.4332-6.1092-2.6501-8.8783-0.67764-1.8486 0.23013-5.27-1.6556-5.9185-2.4785 3.8908-2.3995 7.6607-2.9816 13.152-0.45535 4.2973-3.7928 9.7165-4.6372 14.468-0.29153 1.6396 0.072174 3.0362-0.33054 4.2741-0.69516 2.1371-2.9738 4.1289-3.9751 6.2476-1.0559 2.2377-1.1106 4.3245-1.6556 6.5767 6.7802-2.4691 12.072-7.4623 16.893-12.166 2.4638-2.4032 5.0359-4.7193 7.2872-7.2339 3.4125-3.8115 6.6642-6.4625 9.9363-10.522 3.4145-4.2354 5.8628-10.386 8.2808-16.112 3.8552-9.1251 9.4527-18.33 13.249-27.619-0.47583-1.2244-1.6995-0.48877-2.6501-1.3153-3.51-3.0556-1.5571-11.344 2.9816-11.18-1.0949-2.7062 0.67862-6.718-0.66202-10.193 2.6296 1.7702 1.5122 6.9096 1.6556 9.5355 1.1866 1.6715 3.158 2.5639 3.6436 4.9322 0.92139-1.1043-0.32568-5.0416 2.3186-5.2613-0.30908-1.1179-2.2747-0.59137-2.6501-1.6444-0.76636-1.3212-0.72443-3.4456-0.66299-5.5895 0.79849-0.63104 1.3153-1.5438 1.9871-2.3016h2.6501c1.795-2.2532 0.58404-8.1795-2.6501-7.2339-1.3874 2.3742 1.7277 4.85 0.66299 6.9048-2.0261-0.29034-0.21158-4.3932-1.9871-4.9323 0.00293-0.87302-0.12576-1.8777 0.33151-2.3016-3.0596-0.077423-3.3755 2.5687-5.3002 3.6169-0.42902-1.8167 1.5737-3.8618 3.3111-4.6032-2.1674-3.3614-7.6753-1.5244-11.261-3.6169-1.3017-2.4119-3.9839-4.1338-4.3066-7.562-0.19403-2.0693 0.49918-4.3941 0.66299-6.9048 4.3827 0.80043 5.4873 4.8558 7.2872 8.2201 2.2678 3.5579 6.5052 5.1607 8.6123 8.8773 1.0208 0.24583 0.40366-1.1334 1.6556-0.65718-0.082886 2.1651 3.2282 0.96109 3.9751 2.3016 0.054596-2.4778 0.64548-5.5411 0.33151-8.2202-0.15015-1.2795-1.056-2.2464-1.3251-3.6169-1.3787-7.0248 1.7941-15.481-1.6556-21.702-3.3726-2.4613-4.294-7.3558-7.6177-9.8645-0.41733-2.7391-3.0245-4.6032-4.6382-7.8911-1.133-2.3103-1.9149-5.2458-2.9806-7.891-0.9906-2.4564-2.2913-6.0879-3.9751-6.5767-4.0921-1.1866-4.8419 3.1408-8.9438 3.2879-0.96817 0.83624-1.8847 1.9638-2.6501 2.9598-0.83264 1.083-1.2236 2.3064-1.9871 3.2879-0.69031 0.88754-2.0777 1.5892-2.9816 2.6307-1.2558 1.447-1.68 3.0914-3.3121 3.946-0.99548 0.52168-2.263 0.75301-3.3121 1.3153-2.2883 1.2282-4.0482 3.916-6.9557 3.946 0.31592-8.8318 6.7666-12.936 13.249-16.769 5.5264-3.2675 9.5854-7.9385 17.556-5.5894-1.757-6.8051-5.2524-11.884-6.2937-19.4-2.0085-1.9522-3.3959-4.519-7.2872-4.6032-0.89502 0.098724-0.59378 1.3831-1.325 1.6444 2.3127 3.585 1.9052 11.229-2.9816 10.851-3.5071-0.27196-5.152-7.1458-1.9871-9.8645 1.758-1.5099 2.9543-0.040649 4.6372-1.9735-4.1351-2.2319-9.2665-1.5118-13.912-2.9598-2.3664-0.73753-4.6518-2.2048-6.9557-3.2879-5.4065-2.5397-14.188-3.2743-15.568-9.8646 2.2972-0.36005 4.3115 0.99692 6.2937 1.3154 3.9546 0.63588 7.0649 0.57393 10.268 1.9735 2.6667 1.1644 4.9296 3.1988 7.9492 4.2741 2.1509 0.76656 4.4188 0.79463 6.2937 1.9735 2.1889 1.3754 4.8302 6.2728 8.9428 3.946-10.832-9.4145-22.019-18.477-22.855-37.813 2.2591 0.84592 3.4603 3.1136 4.6371 4.9323 1.3553 2.0964 1.912 4.4909 2.9806 6.5767 1.5551 3.0343 4.3671 5.2943 5.9622 8.2201 0.89407 1.6376 1.4625 3.1136 1.988 4.9323 0.49237 1.7083 0.53918 3.855 1.3241 5.5895 1.8125 4.0012 6.2147 5.9785 9.6068 8.2201-0.15308-6.0037-3.3355-10.731-3.6436-16.44-0.17938-3.3179 0.68542-7.0645-0.33148-10.522-1.4694-4.9981-8.507-6.8128-13.581-9.5355-1.6897-0.90786-4.6362-3.6247-6.2937-4.2751-0.90091-0.35328-2.0748-0.079369-2.9816-0.32908-0.76053-0.20905-1.7638-0.94561-2.6501-1.3153-3.2029-1.3376-5.0037-2.4381-7.2872-4.9323-0.40948-2.8814-2.1645-4.427-2.9815-6.9048 3.1239 0.18681 4.876 1.7354 6.2937 3.6169 3.237 1.2805 6.1162 2.9152 9.6058 3.946-2.032-2.6974-6.9889-5.3368-10.269-7.891-1.718-2.108-2.1187-5.7821-2.6501-9.8645-0.2106-1.6222-1.4069-3.8096 0-4.9323 1.9881 0.73753 2.968 3.7166 3.9751 5.5895 3.1444 5.8488 6.7968 11.935 11.261 16.769 0.29739 0.96304 0.29739 1.0105 0 1.9735 7.6197 3.0672 9.6984 11.636 17.224 14.797 0.05658-3.2888 1.0511-8.6411-1.324-10.851-1.0676-0.14615-1.795-0.63009-2.9816-0.65816-1.3748-1.7935-4.6966-3.1727-6.6242-5.9185-1.3397-1.9077-2.2221-4.9178-3.6436-7.563-2.1938-4.0805-3.9381-6.2215-3.3122-11.837 0.38712-3.4785 2.4453-6.6299 2.9816-10.522 2.5458 2.2261 2.8802 5.0842 2.3186 9.2064-0.14432 1.0608-0.69031 2.4748-0.66302 3.2879 0.059479 1.7093 1.4791 3.7786 2.3186 5.9185 1.5814 4.0292 3.2536 7.1864 5.2992 10.851 1.9003 3.404 2.6355 6.2873 5.9622 7.892 0.28375-3.1223 0.78778-6.0947 0.33151-8.5492-0.42902-2.3122-2.3176-4.7542-3.3121-7.2339-1.5503-3.8647-2.8723-6.9232-2.9816-12.495 3.5412-1.384 5.4542 1.5651 6.9567 3.2879 1.5249-3.1349-0.84631-5.0833-1.9871-6.9048-2.2737-3.6305-4.2667-8.1872-5.9622-12.495-1.7063-4.3332-3.4252-9.1725-4.3066-14.139-2.224-2.7246-5.4923-4.4125-5.6307-9.2064 3.5744 0.75882 7.3457 1.0588 9.6058 3.6169 1.4859 1.6822 2.1061 5.424 3.3122 8.8773 1.363 3.9073 3.59 7.8127 3.9741 11.18 0.45728 3.9925-0.095581 7.1555 0 10.522 1.2977 1.7799 1.7833 4.368 2.3186 6.9048 1.2178-5.3968 1.5366-10.622 1.325-16.769-0.44751-1.1218 0.72443-0.25939 0.99451-0.98626 0.50992-1.3831-0.3822-4.1406 0-5.9185 2.3371 1.2563-0.10333 5.3649 0.99353 7.563 1.247-1.1731 2.067-2.77 2.9816-4.2751 0.27982-9.3874-3.5802-17.064-2.6501-25.976 0.11212-1.0802 0.62689-2.1613 0.66299-3.2879 0.13648-4.2422-1.3933-8.6189 1.6556-11.837 1.094 0.22164 2.4239 1.8148 2.9816 2.9598 2.6754 5.5024 1.3309 15.068 1.325 22.688 1.1944-1.114 0.22424-2.0219 0.3305-3.2879 0.71954-8.555 5.1246-15.308 8.2808-22.031 1.3309 0.77236 0.78589 3.103 0.66299 4.6032-0.43484 5.333-3.0781 11.19-5.3001 14.797v1.9725c-1.7774 1.1953-2.2961 3.6392-2.9816 5.9185-1.3036 0.52652-0.11505-1.4199-0.99353-1.3153-0.88141 3.0401-1.484 6.7896-1.9881 10.522-0.25348 1.8825 0.30228 3.9838-0.33145 5.5895-0.95847 2.4361-3.8182 2.5794-4.3057 4.9323 1.0676-0.37166 3.3696-2.35 5.6307-2.6307-1.2178 1.9706-4.1984 2.1893-5.6307 3.946-1.1203 3.2143-1.4508 5.453-1.6556 9.2074 1.6097-1.6134 3.943-3.6121 5.6307-5.9185 0.54797-0.74816 0.67178-1.7741 1.3241-2.6307 2.1441-2.8117 6.8729-5.2991 10.268-7.562 6.1699-4.1134 10.97-8.4108 20.537-4.9323-6.0499 6.747-16.704 7.8785-24.842 12.495-3.0001 1.7015-5.0886 4.0254-8.2807 4.9323-2.7028 3.8492-5.9515 7.1816-5.6307 12.495 0.16186 2.6965 2.6901 6.3473 3.3122 10.194 0.12088 0.74622-0.14236 1.6386 0 2.3016 0.81314 3.8124 2.7056 7.561 2.6501 10.851-0.042908 2.5048-1.7462 4.0196-2.3186 6.5757 2.462 1.0143 1.72-3.9876 4.3057-3.946 1.5815-3.3479-0.07605-9.9207 0.33154-13.811 0.22714-2.1767 1.0822-4.6477 1.6556-7.2339 1.0832-4.8839 2.5302-8.8434 4.3066-13.152 1.5278-3.706 1.9227-6.867 4.9687-8.5492 0.94476 0.57491 1.1768 1.6928 1.6556 2.6307 0.99548 1.9483 1.8798 4.2451 0.99451 7.891-0.33441 1.3753-1.2158 2.8794-1.6556 4.6032-0.62012 2.4264-1.3182 5.0455-1.988 7.2339-0.65228 2.1322-1.1798 3.8889-1.9871 5.9185-0.59088 1.4876-0.9097 3.1456-1.3241 3.946-1.519 2.9268-5.7945 5.8363-5.9622 10.193 1.1281 0.26132 1.9452-1.0434 2.6501-1.6434 0.83166-0.70945 1.9169-1.417 2.6501-2.3016 1.7638-2.1293 2.3127-4.5616 4.6372-6.2476 3.8874-2.8194 10.098-4.3235 16.23-4.9323 3.9595-0.39296 11.335-1.4054 12.918 1.9725-3.474 1.116-7.1478 2.5774-11.261 3.6169-3.7938 0.95819-7.7708 2.3384-11.594 3.2879-2.8753 0.71429-6.1074 0.52459-8.6123 1.6444-3.123 1.3957-4.4119 4.6584-6.9567 6.2476 0.65131 0.99788 0.79657 2.4981 0.66299 4.2751 5.6141 1.6531 4.1302 11.623-0.99353 11.509-1.482-0.032913-3.5598-1.7441-3.9751-3.2879-0.99649-3.7108 1.6605-7.0848 3.9751-8.5492 0.10141-1.1973-0.053619-2.14-0.33148-2.9598-3.6982 2.4671-7.9522 4.3816-10.269 8.2201-0.36661 9.9004 2.3537 16.736 3.6436 24.99 2.6901-1.8632 3.2965-5.0232 4.6372-7.562 3.2282-6.1121 8.2983-12.85 14.574-16.112 1.2451-0.64654 2.5867-0.95335 4.3066-1.6434 1.9763-0.79462 3.8883-2.5445 6.2927-2.3016 0.22427 4.0718-4.1018 6.6067-6.9557 9.2074-5.6385 5.1375-12.724 9.6565-18.88 14.139-0.97794 1.6599-1.4528 3.8192-2.9816 4.9323 1.0637 3.1456 1.7511 8.2482 2.9816 12.494 1.0384 3.5889 2.9864 6.7122 3.9741 9.8646 0.44168-5.1162 1.4382-9.5964 2.9816-13.811 0.76248-2.0819 1.6166-4.3293 2.3186-5.5894 2.2951-4.1202 6.435-6.3502 9.6068-9.8646 1.5727-1.7422 2.3644-4.217 4.6372-5.2614-0.71368 5.2101-3.198 8.6624-4.3056 13.482-2.4151 2.0974-3.9674 5.0494-5.9622 7.5629-2.965 0.90787-4.2198 3.8618-5.9622 6.9048-1.7823 3.1146-1.7472 2.9452-1.6556 6.9048 0.035095 1.5641-0.67178 2.1506 0 3.6169 1.6702 3.646 3.5539 7.7594 4.9686 11.18 1.4898-0.38327 1.5835-2.1545 2.3186-3.2879 2.1236-0.031937 3.7538-2.198 5.9622-2.6307 7.4344-1.4518 16.149 0.50813 19.875 4.9323-7.7474 1.9784-15.538-0.65234-25.505-0.98723-0.61719 1.0318-0.95651 2.3384-1.6566 3.2879 1.7365 6.2776 6.2157 9.8326 8.9438 15.125 1.1037 1.207 4.1798 0.45491 3.9751 2.9598-0.76144 1.7093-1.4664-0.91368-2.3186 0 0.10138 1.8167 1.3816 0.53813 2.3186 1.6434 0.30423 3.3537 1.6039 6.9706 0.66202 10.523-1.0306-0.073563-0.55868-1.6367-0.66202-2.6307-0.71664 0.60396-0.69806 1.9377-0.66299 3.2879 0.5343 1.1063 1.0491-1.0337 1.6556 0 0.50699 1.0463 0.116 1.447 0 2.6307 1.2236-0.22165 2.3371-0.74721 3.3121-0.32909 6.164 2.8688 8.3851 9.6516 13.249 13.811 1.0159-2.499 1.6507-5.3756 3.3121-7.2339 0.31787-3.494-0.80924-5.5536-0.99356-8.5492 1.9188-0.41231 3.5998 1.7325 4.3057 2.9598 0.47873 0.83334 0.74197 2.3229 1.3241 3.6169 0.42902 0.95047 1.288 2.0306 1.6566 2.9598 0.57819 1.4596 0.51578 3.2569 0.99353 4.6032 0.81415 2.2938 2.5984 4.6467 3.6436 7.2339 0.60257 1.4915 0.64935 2.9656 1.325 4.2751 0.61426 1.1895 1.7462 2.0703 2.3186 3.2879 0.76053 1.6173 0.77808 3.3614 1.6556 4.6032 1.6595 2.3471 4.5367 3.1746 6.6252 4.9323 1.6956-6.6648-2.0514-11.594-3.3121-16.44-0.37732-1.4489-0.2233-3.0236-0.66299-4.2751-0.61914-1.7606-3.0694-6.1431-4.6372-7.563-0.82584-0.74721-2.1012-0.87012-2.9816-1.6434-3.4125-3.0033-5.0818-7.7943-7.9492-11.18-0.60062 0.93785-0.43387 2.6384-1.325 3.2879-1.2236-0.80431-0.051697-3.0924 0.33148-4.2751-2.378-3.5618-5.0574-8.4021-4.6372-12.824 2.0027 0.5333 2.5662 2.4942 4.6372 2.9598 2.225-1.4741 1.3426-3.3498 1.325-6.9048-0.024384-5.2081 0.70496-13.027 0-20.386-0.233-2.4313-0.91846-5.5304-0.66299-8.8783 0.31979-4.188 1.7784-7.0016-0.99451-9.2064-2.5428 0.10552-1.8126 3.4611-4.3056 3.6169 0.17841 1.5767 0.95062 2.5629 1.987 3.2879 1.4859 3.7873 0.78101 9.1474-2.9816 8.8783-2.2016-0.15776-1.8759-2.0364-3.6427-3.2879 0.91653-1.3918 0.76056-3.8473 1.3241-5.5894 0.79559-0.30586 0.87653-1.3212 2.3186-0.98625 0.72638-3.1301 2.2386-5.4636 4.3095-7.2455zm-192.12-83.188c-0.41925 4.339-1.9393 10.199-2.3186 15.454-0.29056 4.0206-0.17551 7.4497 2.3186 8.5492 1.1057-2.9926 2.7934-6.7993 3.9751-11.18 1.7921-6.6435 6.322-17.345 1.325-22.688-2.768 2.2948-2.5107 7.592-5.3002 9.8646zm155.02 9.2064c-0.50897 1.9667-0.38901 3.9702-0.99353 5.9185-1.4547 4.6932-4.3252 9.8626-3.9751 15.125 3.1064-3.3721 4.683-7.832 6.2937-12.823 0.8541-2.6481 1.1056-5.1607 1.6556-7.892 0.75073-3.7176 3.5422-7.6326 1.325-11.179-0.90091 3.6305-3.3014 6.9726-4.3057 10.851zm-11.924 26.305c-0.62012-1.4925 1.3162-0.44715 0.99353-1.6444-0.35004-2.3916-1.0364-4.4503-1.3241-6.9048-1.7268-1.2902-0.8736-3.1011-0.99451-4.9323-0.39294-5.9698-5.6872-16.503-10.599-17.098 1.3211 12.827 7.9181 20.417 11.924 30.58zm-144.09-1.3153c0.42802-4.459 0.25252-9.1522-2.3186-12.166-0.40561 4.4164 0.46605 9.0506 2.3186 12.166zm165.62-7.8911c-0.66397 0.61362 2.4522-0.00872 2.6501-0.65816-1.1924-0.087112-1.5971 0.60783-2.6501 0.65816zm-6.2937 3.6169c1.0901-1.4431 4.7581-2.0664 4.9687-3.2879-1.4713 1.0646-5.2183 1.6076-4.9687 3.2879zm-20.536 15.783c2.5292-2.441 5.4503-4.5519 4.9686-8.5492-0.09845-0.81205-1.2431-2.9394-1.9871-4.6032-0.99258-2.2174-2.07-4.5248-2.9816-4.9323 0.4436 6.3134-0.89801 12.393 0 18.085zm10.931 4.2741c0.69418-0.76268 1.4878-2.7188 0.66202-3.946h-0.99356c-0.25836 0.88851-0.90384 3.6034 0.33154 3.946zm-54.986 50.308c-0.36368-5.0358 0.2847-10.915-0.66205-15.125-0.2496-1.1072-1.0881-2.1729-1.325-3.2879-0.57526-2.7081-0.32858-5.754-0.99356-8.5492-0.53626-2.2532-1.8379-5.0562-1.325-7.892-3.6582-5.0271-11.749-5.6543-15.9-10.193-2.9972 3.2714-4.3612 8.165-6.6242 12.166-2.8197 1.417-4.333 3.764-6.2937 5.9185-0.91556 1.0056-2.3703 2.048-2.9816 2.9588-1.5142 2.2571-1.4801 5.6369-2.9816 8.5492-0.95352 1.8486-3.2672 3.1398-4.3066 4.9323-1.0862 1.8738-1.0881 4.3651-1.9881 6.2476 3.2595-0.26616 6.5092-0.10356 9.2753-0.98625 1.9149-0.61171 4.446-1.7344 5.9622-2.6307 2.3859-1.4112 4.4256-4.5626 7.2872-6.2476 1.6049-0.94464 3.2166-1.326 4.6372-2.3016 2.4892-1.7112 4.019-3.3285 5.6307-5.2614 0.43875-0.52556 1.951-0.91464 1.325-1.9735-3.3823 0.80043-6.088 3.0294-8.9438 4.6032-1.402 0.77237-2.9162 1.5331-4.3066 2.3016-4.2744 2.3616-7.0045 4.5112-10.268 7.562-1.8964 1.7732-3.8893 3.6295-6.6242 4.2751 4.5474-7.8707 11.568-13.288 19.874-17.426 0.16379-1.5912-0.46899-3.9721 0.66299-4.6032 1.8048 0.18196 1.6166 2.3403 2.3186 3.6169 2.0095-0.82076 6.3776-2.1787 8.6123-0.65816-1.2285 4.2606-5.0486 5.9495-7.9502 8.5492 1.6049 3.6005-0.17746 6.9967-0.33054 10.194-0.21161 4.4145 1.3231 9.0593 0.99353 13.482-0.075073 0.99982-0.52457 1.987-0.66299 2.9588-0.29544 2.0771 0.34515 4.7135-1.325 6.2476 0.94675-4.5326-0.65131-7.6375-1.325-10.522-1.3767-5.8953-2.0075-14.928-0.66202-20.386-3.1902 1.2166-4.839 3.9644-7.6187 5.5895 3.1473 2.8233 4.3993 6.4315 5.9622 11.179 0.90384 2.7449 2.3244 5.7385 2.6501 7.891 0.2467 1.6289-0.27689 3.4427 0 5.2614 0.4407 2.8891 1.8974 5.4075 0.99356 8.8773 4.3875 3.0982 7.3184 7.6414 12.919 9.5355 3.1005 3.6082 6.6233 6.7964 9.2743 10.851-1.4801-2.3452-0.62884-5.7763-0.99353-8.8773-0.50311-4.2722-3.276-7.6472-3.3121-11.837-0.13358-1.2921-1.4557-1.4044-1.6556-2.6307 0.71466-0.48685 1.0189-1.0705 1.325-1.9725 2.0241-5.9727-0.085785-9.307-1.988-13.152-3.6476-7.3771-8.8083-14.667-7.2873-24.99 3.9966 1.4373 4.0951 7.2358 5.6307 11.508 0.77026 2.1419 2.0124 3.6973 2.3186 5.9185 0.59769 4.3409-0.35977 8.9218 2.9806 11.508 1.8184-3.6605 0.31888-6.7809 0.001984-11.178zm-65.254-30.251c1.1973-0.56427 0.72929-4.1938-0.66203-4.2751-0.30908 1.0598-0.95747 4.1618 0.66203 4.2751zm9.6058 8.2211c0.12286 4.3496 1.7677 7.8291 2.3186 11.18 0.3627 2.2029 0.73029 4.278 0.99451 6.2476 0.468 3.4931-0.4953 5.8246 0.33052 7.891 0.67471-1.7267 0.65717-3.192 0.33148-5.2613 0.23596-1.1905 1.1554-1.7025 1.3251-2.9598-1.1632-7.3432 0.89114-17.566-1.9871-23.017-0.80438-1.5234-2.3771-2.198-2.9816-3.6169 0.37734 3.3527-0.41827 6.4693-0.33151 9.5364zm57.303 28.606c4.5436-3.1514 4.5124-8.8908 6.2937-15.125 0.45923-1.6086 1.0374-2.7362 1.325-4.2751 0.95258-5.1007 1.091-10.994-0.33154-16.111-0.07312-0.25648-0.27783-0.38229-0.66299-0.32907-3.5968 10.71-9.8788 22.253-6.6242 35.84zm46.374-31.237c-0.33444-0.99593-2.1811-2.2009-3.3121-1.3153 1.756-0.41618 1.8788 2.501 3.3121 1.3153zm-10.931 6.2466c1.1261-0.73558 1.1476-2.439 0.66302-3.946h-1.3251c-0.66397 1.0676-0.38318 3.5337 0.66205 3.946zm-60.615 30.908c-3.3872-5.7337-5.9203-11.756-7.9502-18.413-2.2445 0.21585-3.5227 1.568-4.9687 1.9735-1.7979 0.50427-3.4467-0.087097-5.6307 0.32811-1.4625 0.27875-2.8529 1.9251-4.6372 1.3153-0.68735 2.3877-2.3088 3.8463-2.6501 6.5757 0.47189 0.94076 1.5405 0.72299 2.3186 1.3153 0.34125 0.26038 0.035065 1.0298 0.33148 1.3154 0.11508 0.11034 1.131 0.27197 1.6556 0.65718 1.2909 0.94756 1.3562 1.1895 2.6501 1.9735 1.3816 0.83527 2.8577 2.8397 3.6436 3.2879 1.952 1.114 4.3027 0.60394 6.2937 1.6444 0.96231 0.5033 1.3611 1.6725 2.3185 2.3016 1.9188 1.2602 4.0814 1.628 5.9622 2.9598 0.80634 1.8302 2.3147 2.9636 3.6436 4.2751 1.4791-4.4832-0.81607-7.8436-2.9806-11.51zm-29.48 0.6582c0.097488-0.20132 0.82387-1.266 0-1.3153 0.31686 0.61267-0.99257 1.0995 0 1.3153zm57.635 2.9597c2.927-0.16647 2.4941 3.0043 4.3066 3.946-0.74295-2.3345-0.15695-5.1413 0.66202-6.9048-2.3634 0.28358-4.1701 1.1208-4.9687 2.9588zm11.262 3.2879c1.9656-6.8719-6.514-7.6849-6.9558-2.3016-0.14041 1.7073 1.0559 2.9791 1.9871 4.9323 2.8207 0.15677 4.5406-1.1353 4.9687-2.6307zm95.064-3.946c0.05658-0.82268-0.50796-1.0288-0.9935-1.3153-0.93698 0.79076 0.32663 2.1168 0.9935 1.3153zm-105 10.194h1.325c0.68835-0.84689-0.059479-2.3761-0.66299-2.9598-0.68057 0.5304-0.76733 1.6483-0.66205 2.9598zm142.43 11.18c1.5454-1.4305 4.3758-3.7834 4.6381-4.9323 1.0131-4.456-3.861-8.5482-8.6123-5.5894-0.1199 5.1655-1.8749 9.6313-1.6556 14.139 1.5893-0.36586 3.7421-1.8699 5.6297-3.6169zm-111.96-0.6582c-0.83557 1.146-1.4557 2.6636-2.3186 3.946-0.91354 1.3579-2.1811 2.6887-2.6501 3.946-1.3991 3.7544-1.1944 9.1086-1.9871 13.482 3.2458-2.0887 5.1656-6.4373 7.2872-10.522 2.0319-3.9112 4.2316-8.5056 5.6307-12.495 0.71271-2.0316 1.0794-4.8161 0.33151-7.2339-0.61816 4.4193-4.0551 5.8111-6.2937 8.8773zm-92.746-5.9185c0.090683-0.44716-0.20474-1.2834-0.33052-0.65718-0.090698 0.44714 0.20474 1.2834 0.33052 0.65718zm-3.9742 9.8645c-0.087738-1.7412-2.5019-4.0534-3.9751-2.3016 1.7911 0.091949 2.9962 2.4961 3.9751 2.3016zm1.325-0.3291c-0.25545-0.84012 1.2968-1.5118 0.33151-1.9725-0.30617 0.61847-1.7677 1.5215-0.33151 1.9725zm177.54 2.6297c-0.78098 6.7335-1.7872 15.008-0.99356 20.715 0.72833 5.241 4.2042 9.4106 3.9742 14.468 1.6848-1.6338 2.458-4.9952 2.6501-8.2202 0.48166-8.0633 0.54697-22.483-1.3241-26.963-0.73126-1.7509-2.4629-3.0091-3.6436-3.6169-0.004883 1.536-0.53137 2.4894-0.66299 3.6169zm-35.11 12.167c-1.2812-3.1601-1.0784-9.7513-5.6307-7.5629-1.1446 3.8173 1.1593 8.132 1.325 13.152 0.24765 7.5068-2.3849 15.534-1.988 22.36 8.8814-2.2542 13.823-8.4195 15.238-18.085-4.2628-2.3374-6.8348-4.6671-8.9438-9.8646zm-6.2937 0.3281c-0.044861-1.5951-0.44852-3.5453-0.66205-5.2614-0.09845-0.78496 0.60355-2.4826-0.66299-2.6307 0.4183 2.5029-0.28958 5.9098 1.325 7.892zm-136.8-2.3016c0.089722-0.44716-0.20474-1.2834-0.3315-0.65816-0.089706 0.44814 0.20572 1.2844 0.3315 0.65816zm139.45 30.908c-0.80731 0.83719 1.2285-0.9756 1.6556 0-0.50604 1.8002-2.4268 2.1951-3.9752 2.9598-0.37631 3.3837-4.9403 3.888-3.9741 7.562 4.2462 1.5747 3.4652 10.977-1.325 10.522-2.2064-0.20904-2.3351-2.2377-3.9741-3.616-2.028 5.5711-6.359 10.508-7.2882 16.769-5.6473 6.5592-7.257 17.126-12.255 24.332 4.6635 0.91269 8.8745-0.90689 12.255-2.3026 0.65424-1.1053 0.024384-3.4824 1.325-3.945 0.94479 0.74722-0.46603 1.927 0 3.2879 2.6306-0.78592 5.4474-1.3889 7.2872-2.9598 1.1583-3.255 1.9793-8.5289 5.3002-8.5492-2.0368 1.9241-3.4613 4.4561-3.9742 7.891 4.5338 0.007751 6.5404-2.4952 9.6058-3.946-2.0466-3.4234-3.3209-11.42 0.66299-13.81 2.4473 2.3935 1.8769 7.7817 3.3121 11.179 8.6688-1.1092-2.3439-17.036 8.2808-16.768 4.3242-11.361-2.6277-33.694 9.2743-35.512 3.5607 5.0058 0.47678 10.102-0.33054 15.454-0.3978 2.6345-0.17352 5.422-0.66299 7.891-0.13361 0.67172-0.78195 1.2331-0.99454 1.9725-0.27591 0.96304-0.056519 2.1351-0.33145 2.9598-1.1729 3.5144-3.6017 6.1538-4.9687 8.5492 2.1986 1.2156 3.4984 3.3237 6.2937 3.946 5.2339-4.2296 8.6903-10.226 14.574-13.811-0.16184-1.0375 0.59671-1.1614 0.33151-2.3016 0.81122-0.7298 1.7901-1.2921 2.9816-1.6444 1.7384-2.7071 3.864-9.249 0.99451-12.494 0.30032-0.57977 1.2198-0.54394 1.3241-1.3153-0.85605-2.4178-2.4239-4.4338-5.3001-3.946-0.62109-0.62619-0.036072-0.82559 0-1.6434-4.096-3.1378-7.6275-6.9145-11.262-10.523-3.7704-3.7437-5.6648-8.9615-7.2872-14.797-1.0978 1.5409-0.82385 4.4435-2.6501 5.2614 0.72635 2.4303 4.1175 5.4452 2.3185 8.2201-1.2363-0.74524-1.1602-2.7923-2.6501-3.2878-1.1184 2.6152-0.78394 6.6744-2.6501 8.5492-0.4787 1.2428 0.91068 0.63106 0.66299 1.6434-1.7882 0.52654-2.2523 2.3684-3.3121 3.6169-2.7368 1.3386-4.0912 4.0496-7.2872 4.9323-0.38705-0.86047 1.0218-1.414-0.33151-1.3153-0.84534 0.038696-1.1583 0.60492-1.6546 0.98819zm90.427-25.976c-4.2559-2.9394-5.3781 5.2662-2.9816 7.2339h2.6501c1.8399-1.4615 1.3884-5.2004 0.33148-7.2339zm-92.415 2.3016c-0.2428-2.8436-0.40271 0.38133-0.33154 0-0.1745 0.93205-0.29538 3.5714 0 5.2614 0.16089-1.8593 0.40756-4.3738 0.33154-5.2614zm-137.46 7.5629c-0.074081 0.55943 0.37343 0.81302 0.3315 0 9.92e-4 -2.0838 0.13944-4.3032-0.66299-5.5895-0.24667 2.2184 0.53332 3.4166 0.3315 5.5895zm3.6436 4.2741c-0.51871 0.86334-0.43582 1.9696-0.99353 2.9598-2.3556 4.1773-8.0624 8.1311-7.2872 13.48 6.2898-7.4565 13.57-15.682 15.9-25.976-1.8282 3.2482-5.4376 5.9059-7.6187 9.5354zm52.667 0.6582c1.0482-0.50815 0.84146-2.8097-0.66299-2.6307-0.45923 0.55264-0.7644 2.9462 0.66299 2.6307zm179.86 2.3016c0.4602-1.0424 0.4602-2.9036 0-3.946h-0.99353c-0.68838 1.0317-1.4118 4.2761 0.99353 3.946zm-187.81 2.3016c0.38123-0.38811 0.37442-1.1624 0.33054-1.9735-0.48944-0.17133-0.8346-0.48587-1.325-0.6572-0.99744 0.66591-0.78684 2.892 0.99451 2.6307zm133.82 7.2339c0.66205-3.072 3.0888-6.1382 1.9871-9.8646-0.19595 3.5579-4.8526 6.3473-1.9871 9.8646zm-36.436-4.6032c1.2119-0.77623 3.6299-2.0867 3.3121-3.2879-0.99451 1.204-2.8929 1.5109-3.3121 3.2879zm-87.114-1.9725c-0.25839 0.94852-1.6019 0.82077-2.3186 1.3153-1.1846 2.8562-0.43094 7.3239 3.3121 7.2339 2.7505-1.505 2.7242-8.166-0.99353-8.5492zm21.862 7.8901c0.051666-1.2563-0.017548-2.3945-0.66205-2.9588 0.14139 1.0637-0.4368 2.8436 0.66205 2.9588zm51.673 0.3291c1.1583 0.12677 1.8827-2.2252 0.33148-1.9725-0.38123 0.3891-0.3754 1.1624-0.33148 1.9725zm55.316 7.5629c2.5389-1.865 4.6323-5.9204 4.6372-9.2064-1.1496 3.4621-2.7505 6.4751-4.6372 9.2064zm-191.45 3.946c1.1242-2.3907 2.7505-4.2838 4.3066-6.2476-0.37929-1.7064-0.53139-3.6373-0.66301-5.5895-3.5422 1.2979-6.3044 7.5368-3.6436 11.837zm128.85-9.5355c0.51477 0.39584 1.29 1.0502 1.9871 0.32809 0.1365-1.6889-1.9149-2.1961-1.9871-0.32809zm-43.061 4.6032c-0.42902-0.99887-0.21448-2.6374-0.99353-3.2879-0.3237 1.5408 0.58014 3.5695 0.99353 3.2879zm-85.458 17.426c0.20474 0.67172 1.3026 2.3829 1.9871 3.6169 1.7228 3.1069 3.7284 5.3194 6.2937 6.5767-0.508-3.9208-3.8874-6.8815-4.6372-11.18-0.86681-4.9613 1.2236-9.9149 0-14.797-0.073151-0.2565-0.27789-0.38232-0.66302-0.32907-2.8275 3.7486-4.8312 10.065-2.9806 16.112zm182.84-7.562c2.966-1.5496 4.9414-4.0825 6.6252-6.9048-2.3712 2.141-3.9507 5.0659-6.6252 6.9048zm-96.39-4.6032c0.043854-0.43167 0.05069-2.379-0.33054-1.3153-0.044861 0.43262-0.051666 2.378 0.33054 1.3153zm-79.498 8.2201c-0.53235-1.8815-0.84729-3.9808-1.6556-5.5894-0.89703 2.2174 0.21742 4.6593 1.6556 5.5894zm78.834 0v-4.6032c-3.6154-1.9929-3.8474 4.6342 0 4.6032zm81.816 9.5345c-0.68057 0.71042-1.9315 1.5525-1.6566 2.6307 3.7314-1.8854 5.7886-5.4327 8.2807-8.5482 2.342-1.3221 6.2518-5.1965 6.9567-5.9185-5.1831 3.042-9.752 7.8398-13.581 11.836zm-80.823-8.2201c-0.031189 0.35037-0.88238 0.77911 0 1.3153 0.60159-2.1013 0.23303-3.9015 0-1.3153zm-80.158 4.2751c0.83168-1.7073-0.51285-3.7922-1.988-4.2751 0.28958 1.7964 0.47191 3.6982 1.988 4.2751zm80.158 5.5904c-0.37051 6.2621-4.3446 11.909-3.3121 18.413 0.20377-8.9789 5.7954-15.83 2.9806-25.648-0.63864 2.499 0.47287 4.85 0.33148 7.2349zm-77.84 1.3144c1.21 4.0535 1.2353 8.6653 4.6371 9.2074-1.0559-6.295-2.6169-12.09-5.3001-16.769-1.8759 2.6965-0.29445 4.3554 0.66301 7.562zm169.59 8.8783c-4.0902-5.483-11.238-7.2184-18.219-9.8636-1.6322-2.5939-5.8003-5.5808-8.2807-1.9735v1.6444c2.1343 0.3649 1.3514-2.1661 2.9816-2.3016 1.4761 4.6535 3.6056 6.8845 6.9567 9.5355 5.6473 4.4687 11.615 8.2104 19.874 9.2074-1.4742-2.0499-1.9052-4.3622-3.3121-6.2486zm-24.512-10.193c-2.3829 0.58655-2.5009 4.818-0.99451 6.5757 1.6253-0.46747 3.3267-0.86237 3.9741-2.3016-1.2032-1.2166-1.3484-3.4834-2.9796-4.2741zm-14.574 19.4c3.3219-1.4576 5.7184-4.6022 9.6058-5.2614 2.4609-1.9416 3.472-5.3223 6.6252-6.5767-0.037048-0.4007-0.099426-0.77914-0.66299-0.65817-0.055573 0.3833-0.52356 0.35718-0.99353 0.3291-2.8022 4.8132-8.7195 7.7014-13.582 10.193-1.3777 0.70657-2.8743 0.98627-4.3056 1.6444-1.6263 0.74817-2.8977 2.0015-4.6372 2.6307-1.597 0.57684-3.704 0.1868-4.6381 1.9725 2.3966-0.48004 5.2748-1.8341 7.2882-1.6434-0.93698 2.2484-5.0623 1.3318-6.6252 2.9598 5.2982 3.5463 12.236-0.36584 18.549-0.65814 0.81998-0.94076 1.5464-1.9735 1.325-3.946-1.3173-0.55557-1.2714-2.4652-2.6501-2.9598-3.0742 1.115-5.9398 4.1851-9.6068 3.6169 1.0452-1.5651 2.9474-1.0463 4.3086-1.6425zm13.581-7.2349c0.42703 0.45392 1.4391 0.32617 2.3186 0.32907 0.69321-2.6006 3.355-3.2462 4.3066-5.5894-2.9465 1.0211-6.3132 1.6251-6.6252 5.2604zm-137.79-2.9597c0.014648-0.6001-0.69904-2.1042-0.9935-1.3144 0.68253 0.08902 0.078979 1.4557 0.9935 1.3144zm207.68 5.2614c2.0056-0.10938 5.5195-1.1982 7.9502-1.6435 1.8993-0.34744 5.1793-0.049347 5.3002-1.9725 0.11896-1.9096-4.0444-2.4981-6.2937-2.6307-6.4955-0.38327-18.744 2.1303-24.18 4.9323 4.8146 0.99692 11.108 1.6502 17.224 1.3144zm-216.3 1.3153c1.2061-0.10162 2.1558 0.052277 2.9816 0.32907 1.6341 2.3258 3.1756 7.7642 0 9.5355h-3.3121c-0.17061 2.5707-1.9003 3.5947-3.3121 4.9332 5.7935 1.927 12.012 4.3409 16.562 7.2339 1.597 1.0143 2.5253 2.6162 4.3066 2.9598-2.8041-8.5056-5.0301-17.585-7.6178-26.306-4.877-0.30972-7.0327-3.3217-11.262-4.2741 0.087769 2.3219 1.7609 3.072 1.6546 5.5885zm209.67 11.838c-1.0608-1.7973-1.5464-4.1657-2.3186-6.2476-6.2235-5.2216-15.498-9.1677-24.512-10.522 7.9493 6.357 15.652 14.714 26.83 16.769zm-201.06-15.126c-1.1476 0.1481-2.7573-1.2137-3.6436-0.98624 0.72641 0.6059 2.3244 2.0586 3.6436 0.98624zm151.04-0.3291c-0.4241-0.018372-0.4592-0.422-0.99448-0.32907-0.51386 0.80914 1.1252 0.96689 0.99448 0.32907zm36.436 0.6581c-0.80924-0.18292-0.7059-1.2718-1.988-0.98721-0.23401 1.0259 1.7228 1.5438 1.988 0.98721zm-53.661 9.8636c2.9075-1.716 3.7986-5.4356 5.3001-8.5482-1.4528 0.018402-1.7735-1.0889-2.9816-1.3154-2.7095 1.4286-2.8519 7.1632-2.3186 9.8636zm15.568-6.2466c2.7963 0.84009 3.4535 3.8047 3.3111 7.562 5.6619-1.4412 1.7199-6.0473 1.988-9.8636h-4.6381c-0.5499 0.43845-0.10919 1.8622-0.66104 2.3016zm-157.01 4.9323c0.547-0.86432 0.60062-3.5134-0.66299-3.6169 0.080933 1.3444-0.32176 3.1698 0.66299 3.6169zm154.36 0c1.2334 0.018402 0.95456-1.4634 0.99353-2.6307-0.87942 0.30878-1.6887 1.7761-0.99353 2.6307zm-79.498 2.9588c-0.18619-1.2979 1.3884-2.5465 0.33154-3.6169 0.37924 1.4896-1.3689 2.5648-0.33154 3.6169zm-79.828-3.2879c-3.6778-0.0242-3.2526 5.4104-1.6565 7.2339 5.3099 1.8128 4.9277-5.9834 1.6565-7.2339zm78.172 7.2329c0.26034-0.96106 1.6088-2.5484 0.99356-3.2869-0.096558 1.1237-1.6751 2.4826-0.99356 3.2869zm-59.291-0.6562c-0.547-0.005798-0.18527-0.91174-0.66302-0.98724-0.28372 0.67169 0.52161 1.8119 0.66302 0.98724zm57.303 8.2201c0.32956-1.0008 0.85022-3.524 0.33154-4.2751-0.40463 0.81497-0.50897 5.0291-0.33154 4.2751zm-55.979-2.9597c0.089691-0.44812-0.20477-1.2834-0.33151-0.65814-0.089722 0.4491 0.20572 1.2844 0.33151 0.65814zm1.325 4.9323c-0.36169-0.95624-0.31006-2.3229-0.99353-2.9597-0.009766 1.326 0.094574 2.5368 0.99353 2.9597zm52.336 4.6032c0.39099-1.5912 2.5136-3.195 1.6556-4.9323-0.14722 1.8341-2.4122 3.2956-1.6556 4.9323zm60.285-0.6581c0.68152-0.77335 0.3432-2.5262-0.66299-2.6307-0.45828 0.55362-0.7644 2.9462 0.66299 2.6307zm-62.272 4.2751c0.21844-0.78882 1.6799-2.0335 0.99356-2.6307-0.086761 0.92044-1.8604 1.8544-0.99356 2.6307zm-48.362 3.6169c0.42215-0.5817 0.05069-3.3518-0.33054-2.9588 0.20572 0.89236-0.4212 2.6084 0.33054 2.9588zm145.41 2.3016h1.6566c0.70496-1.2902 0.28568-3.9005-1.325-3.946-0.66397 0.6998-1.0257 2.9346-0.33151 3.946zm-27.492 4.6032c0.097473-0.20227 0.82486-1.266 0-1.3153-0.097504 0.2023-0.82388 1.266 0 1.3153zm-115.93 7.2339c0.033142-1.0192-0.15018-1.8235-0.66205-2.3016-0.033142 1.0191 0.15015 1.8244 0.66205 2.3016zm0.9935 12.824c0.21939-1.3279 0.77515-4.0399 0-5.2614 0.22525 1.7683-0.99939 3.8173 0 5.2614zm-0.662 6.5757c-0.27206-1.598 1.4411-2.9365 0.33148-4.2741-0.07312 1.2563-1.2383 3.1378-0.33148 4.2741zm0 6.5767c0.54211-0.5333 0.39877-2.0654-0.66302-1.9735 0.005859 0.87207-0.18329 1.9367 0.66302 1.9735zm-24.512 45.047c-0.97792 0.28647 0.76833 0.49264 0.33054 1.3153-3.5188 5.604-6.9372 11.308-11.261 16.111 0.38513 1.1517 1.2412 1.836 1.6556 2.9598 2.4317-1.6415 3.1473-4.9874 5.9622-6.2476 0.29542 0.80045-1.4771 1.6909 0 1.6435 0.34125-1.6338 1.5708-2.3868 2.3186-3.616v-1.6444c0.8697-1.7412 2.2844-2.2281 3.3121-3.616 0.8463-1.144 1.7355-3.5618 2.6501-5.5894 1.1369-2.5204 2.7593-5.3862 2.3186-6.9058-2.2074 2.0829-5.9232 2.6675-7.2863 5.5895zm-12.918 17.098c1.6312-0.45587 2.6832-2.1051 3.6436-3.2879 3.3394-4.1144 5.8608-8.7369 8.2808-13.481-0.07312-0.2565-0.2769-0.38232-0.66203-0.32907-5.2173 3.8792-12.838 8.644-11.262 17.098zm-5.6317 12.165c-2.0495 2.4555-3.9771 4.6806-6.2937 6.2476-1.6263 1.1014-3.6768 1.7402-5.3002 2.9597-2.0495 1.5399-3.8796 3.4446-5.9622 4.9323-2.1606 1.5438-4.1594 3.1466-6.2937 4.6042-4.6957 3.2046-10.086 3.8318-14.906 6.9048 2.3976 0.90881 1.9871 4.1851 1.325 5.9185 3.0518-0.2865 4.6303-4.8084 9.2743-4.6042 4.9852-3.5569 11.093-5.2623 15.568-9.5355 1.0111-0.96497 1.5639-2.1206 2.6501-2.9598 1.172-0.90494 2.6725-1.1411 3.9751-1.9725 1.2968-0.82754 2.887-2.4361 4.3056-3.6169 4.6508-3.8725 8.2067-7.0635 9.9373-13.481-1.9793 0.21097-0.19694-3.3111-2.3186-2.9598-1.5356 2.6578-3.8367 5.0194-5.9612 7.5629zm145.08 7.2349c1.7102 0.82367 2.8022 2.26 3.6436 3.945-0.46704-5.1258-0.54114-10.643-3.3121-13.482-1.0608 2.8794 0.78488 6.6609-0.33151 9.5364zm-1.6556 7.562c1.4654-0.83041 0.38806-3.856-0.66299-4.2741 0.35782 1.2882-0.76636 4.0496 0.66299 4.2741zm29.148-300.86c-0.057556-0.93013 0.2847-2.2561-0.66299-2.3016 0.057495 0.93012-0.28375 2.2561 0.66299 2.3016z"/>
  <path d="m389.47 32.329c0.59082 1.2718-1.4177 2.4381-1.3241 4.2741-1.0413 0.17228-1.8486 0.57685-2.6511 0.98723-2.1226 2.9443-5.6989 4.5393-8.2798 6.9048-1.5844 1.4518-2.6881 3.7176-4.3066 5.2614-2.343 2.2348-5.7389 3.6179-6.6242 7.562-0.92627 0.50523-1.8691 0.99497-2.6511 1.6444-0.31885-0.23326 0.79465-1.8235 1.325-2.3016 0.90189-5.062 3.4642-10.044 6.2937-13.811 3.591-4.7803 6.553-9.6255 12.586-10.522 2.0261-0.30198 3.8299 0.30488 5.6317 0z"/>
  <path d="m208.28 113.55c0.66594 0.26423-0.59183 1.3531-0.66203 1.9725 1.5483 2.2997 3.0391 4.6564 3.3121 8.2201 0.56355 0.97561 2.1518 0.93399 2.9816 1.6444 2.9367 4.5877 0.14819 11.81-5.9622 10.194-0.34612-0.97174-1.677-0.96593-1.325-2.6307-8.7342 1.5418-7.608-12.222-0.99452-12.166-0.17744-1.3579-0.48555-2.5871-0.66203-3.946 1.2373-0.96304 1.9656-2.4323 3.3121-3.2879zm1.6556 10.522c0.38904-4.2219-1.8876-5.7985-3.6436-7.891-0.68834 4.519 1.601 6.0831 3.6436 7.891zm0.3315 1.3153c-0.46704 3.044-1.9851 5.0436-2.6501 7.891 0.77805 1.0908 2.2308 1.5128 4.3066 1.3153 2.6813-1.5641 2.8967-8.8009-0.99451-9.2064h-0.66202zm-5.6307 3.2879c1.1378 0.51491 1.5727-2.2019 0.3315-1.9735 0.006836 0.77528-0.57135 0.96885-0.3315 1.9735z"/>
 </g>
</svg>
